999
"DXF R12 Output" (www.mydxf.blogspot.com)
 0 
SECTION
 2 
HEADER
 9 
$ACADVER
 1 
AC1009
 9 
$EXTMIN
 10 
 0 
 20 
 0 
 9 
$EXTMAX
 10 
 8.5 
 20 
 11 
 0 
ENDSEC
 0 
SECTION
 2 
ENTITIES
0
LINE
8
前面
10
0.000000
20
36.000000
11
0.000000
21
24.937000
0
LINE
8
前面
10
0.000000
20
24.937000
11
3.000000
21
24.937000
0
LINE
8
前面
10
3.000000
20
24.937000
11
3.000000
21
11.062000
0
LINE
8
前面
10
3.000000
20
11.062000
11
0.000000
21
11.062000
0
LINE
8
前面
10
0.000000
20
11.062000
11
0.000000
21
0.000000
0
LINE
8
前面
10
0.000000
20
0.000000
11
15.688000
21
0.000000
0
LINE
8
前面
10
15.688000
20
0.000000
11
15.688000
21
3.000000
0
LINE
8
前面
10
15.688000
20
3.000000
11
29.563000
21
3.000000
0
LINE
8
前面
10
29.563000
20
3.000000
11
29.563000
21
0.000000
0
LINE
8
前面
10
29.563000
20
0.000000
11
43.438000
21
0.000000
0
LINE
8
前面
10
43.438000
20
0.000000
11
43.438000
21
3.000000
0
LINE
8
前面
10
43.438000
20
3.000000
11
57.313000
21
3.000000
0
LINE
8
前面
10
57.313000
20
3.000000
11
57.313000
21
0.000000
0
LINE
8
前面
10
57.313000
20
0.000000
11
71.188000
21
0.000000
0
LINE
8
前面
10
71.188000
20
0.000000
11
71.188000
21
3.000000
0
LINE
8
前面
10
71.188000
20
3.000000
11
85.063000
21
3.000000
0
LINE
8
前面
10
85.063000
20
3.000000
11
85.063000
21
0.000000
0
LINE
8
前面
10
85.063000
20
0.000000
11
98.938000
21
0.000000
0
LINE
8
前面
10
98.938000
20
0.000000
11
98.938000
21
3.000000
0
LINE
8
前面
10
98.938000
20
3.000000
11
112.813000
21
3.000000
0
LINE
8
前面
10
112.813000
20
3.000000
11
112.813000
21
0.000000
0
LINE
8
前面
10
112.813000
20
0.000000
11
126.688000
21
0.000000
0
LINE
8
前面
10
126.688000
20
0.000000
11
126.688000
21
3.000000
0
LINE
8
前面
10
126.688000
20
3.000000
11
140.563000
21
3.000000
0
LINE
8
前面
10
140.563000
20
3.000000
11
140.563000
21
0.000000
0
LINE
8
前面
10
140.563000
20
0.000000
11
154.438000
21
0.000000
0
LINE
8
前面
10
154.438000
20
0.000000
11
154.438000
21
3.000000
0
LINE
8
前面
10
154.438000
20
3.000000
11
168.313000
21
3.000000
0
LINE
8
前面
10
168.313000
20
3.000000
11
168.313000
21
0.000000
0
LINE
8
前面
10
168.313000
20
0.000000
11
184.000000
21
0.000000
0
LINE
8
前面
10
184.000000
20
0.000000
11
184.000000
21
11.062000
0
LINE
8
前面
10
184.000000
20
11.062000
11
181.000000
21
11.062000
0
LINE
8
前面
10
181.000000
20
11.062000
11
181.000000
21
24.937000
0
LINE
8
前面
10
181.000000
20
24.937000
11
184.000000
21
24.937000
0
LINE
8
前面
10
184.000000
20
24.937000
11
184.000000
21
36.000000
0
LINE
8
前面
10
184.000000
20
36.000000
11
168.313000
21
36.000000
0
LINE
8
前面
10
168.313000
20
36.000000
11
168.313000
21
33.000000
0
LINE
8
前面
10
168.313000
20
33.000000
11
154.438000
21
33.000000
0
LINE
8
前面
10
154.438000
20
33.000000
11
154.438000
21
36.000000
0
LINE
8
前面
10
154.438000
20
36.000000
11
140.563000
21
36.000000
0
LINE
8
前面
10
140.563000
20
36.000000
11
140.563000
21
33.000000
0
LINE
8
前面
10
140.563000
20
33.000000
11
126.688000
21
33.000000
0
LINE
8
前面
10
126.688000
20
33.000000
11
126.688000
21
36.000000
0
LINE
8
前面
10
126.688000
20
36.000000
11
112.813000
21
36.000000
0
LINE
8
前面
10
112.813000
20
36.000000
11
112.813000
21
33.000000
0
LINE
8
前面
10
112.813000
20
33.000000
11
98.938000
21
33.000000
0
LINE
8
前面
10
98.938000
20
33.000000
11
98.938000
21
36.000000
0
LINE
8
前面
10
98.938000
20
36.000000
11
85.063000
21
36.000000
0
LINE
8
前面
10
85.063000
20
36.000000
11
85.063000
21
33.000000
0
LINE
8
前面
10
85.063000
20
33.000000
11
71.188000
21
33.000000
0
LINE
8
前面
10
71.188000
20
33.000000
11
71.188000
21
36.000000
0
LINE
8
前面
10
71.188000
20
36.000000
11
57.313000
21
36.000000
0
LINE
8
前面
10
57.313000
20
36.000000
11
57.313000
21
33.000000
0
LINE
8
前面
10
57.313000
20
33.000000
11
43.438000
21
33.000000
0
LINE
8
前面
10
43.438000
20
33.000000
11
43.438000
21
36.000000
0
LINE
8
前面
10
43.438000
20
36.000000
11
29.563000
21
36.000000
0
LINE
8
前面
10
29.563000
20
36.000000
11
29.563000
21
33.000000
0
LINE
8
前面
10
29.563000
20
33.000000
11
15.688000
21
33.000000
0
LINE
8
前面
10
15.688000
20
33.000000
11
15.688000
21
36.000000
0
LINE
8
前面
10
15.688000
20
36.000000
11
0.000000
21
36.000000
0
LINE
8
前面
10
0.000000
20
36.000000
11
0.000000
21
36.000000
0
LINE
8
前面孔
10
9.940379
20
17.649620
11
9.148678
21
17.531069
0
LINE
8
前面孔
10
9.148678
20
17.531069
11
8.440339
21
17.194588
0
LINE
8
前面孔
10
8.440339
20
17.194588
11
7.858402
21
16.668934
0
LINE
8
前面孔
10
7.858402
20
16.668934
11
7.445904
21
15.982865
0
LINE
8
前面孔
10
7.445904
20
15.982865
11
7.252460
21
15.206061
0
LINE
8
前面孔
10
7.252460
20
15.206061
11
7.292259
21
14.422876
0
LINE
8
前面孔
10
7.292259
20
14.422876
11
7.555202
21
13.684077
0
LINE
8
前面孔
10
7.555202
20
13.684077
11
8.031191
21
13.040432
0
LINE
8
前面孔
10
8.031191
20
13.040432
11
8.674836
21
12.564443
0
LINE
8
前面孔
10
8.674836
20
12.564443
11
9.413635
21
12.301500
0
LINE
8
前面孔
10
9.413635
20
12.301500
11
10.196821
21
12.261701
0
LINE
8
前面孔
10
10.196821
20
12.261701
11
10.973624
21
12.455145
0
LINE
8
前面孔
10
10.973624
20
12.455145
11
11.659693
21
12.867643
0
LINE
8
前面孔
10
11.659693
20
12.867643
11
12.185347
21
13.449580
0
LINE
8
前面孔
10
12.185347
20
13.449580
11
12.521828
21
14.157919
0
LINE
8
前面孔
10
12.521828
20
14.157919
11
12.640379
21
14.949620
0
LINE
8
前面孔
10
12.640379
20
14.949620
11
12.428200
21
16.000582
0
LINE
8
前面孔
10
12.428200
20
16.000582
11
11.849567
21
16.858808
0
LINE
8
前面孔
10
11.849567
20
16.858808
11
10.991341
21
17.437441
0
LINE
8
前面孔
10
10.991341
20
17.437441
11
9.940379
21
17.649620
0
LINE
8
前面孔
10
9.940379
20
17.649620
11
9.940379
21
17.649620
0
LINE
8
前面孔
10
24.000380
20
17.549620
11
23.208679
21
17.431069
0
LINE
8
前面孔
10
23.208679
20
17.431069
11
22.500340
21
17.094588
0
LINE
8
前面孔
10
22.500340
20
17.094588
11
21.918403
21
16.568934
0
LINE
8
前面孔
10
21.918403
20
16.568934
11
21.505905
21
15.882865
0
LINE
8
前面孔
10
21.505905
20
15.882865
11
21.312461
21
15.106061
0
LINE
8
前面孔
10
21.312461
20
15.106061
11
21.352260
21
14.322876
0
LINE
8
前面孔
10
21.352260
20
14.322876
11
21.615203
21
13.584077
0
LINE
8
前面孔
10
21.615203
20
13.584077
11
22.091192
21
12.940432
0
LINE
8
前面孔
10
22.091192
20
12.940432
11
22.734837
21
12.464443
0
LINE
8
前面孔
10
22.734837
20
12.464443
11
23.473636
21
12.201500
0
LINE
8
前面孔
10
23.473636
20
12.201500
11
24.256821
21
12.161701
0
LINE
8
前面孔
10
24.256821
20
12.161701
11
25.033625
21
12.355145
0
LINE
8
前面孔
10
25.033625
20
12.355145
11
25.719694
21
12.767643
0
LINE
8
前面孔
10
25.719694
20
12.767643
11
26.245348
21
13.349580
0
LINE
8
前面孔
10
26.245348
20
13.349580
11
26.581829
21
14.057919
0
LINE
8
前面孔
10
26.581829
20
14.057919
11
26.700380
21
14.849620
0
LINE
8
前面孔
10
26.700380
20
14.849620
11
26.494855
21
15.882865
0
LINE
8
前面孔
10
26.494855
20
15.882865
11
25.909568
21
16.758808
0
LINE
8
前面孔
10
25.909568
20
16.758808
11
25.033625
21
17.344095
0
LINE
8
前面孔
10
25.033625
20
17.344095
11
24.000380
21
17.549620
0
LINE
8
前面孔
10
24.000380
20
17.549620
11
24.000380
21
17.549620
0
LINE
8
前面孔
10
33.000000
20
28.450000
11
47.500000
21
28.450000
0
LINE
8
前面孔
10
47.500000
20
28.450000
11
47.500000
21
12.450000
0
LINE
8
前面孔
10
47.500000
20
12.450000
11
33.000000
21
12.450000
0
LINE
8
前面孔
10
33.000000
20
12.450000
11
33.000000
21
28.450000
0
LINE
8
前面孔
10
89.300291
20
28.649710
11
93.300291
21
28.649710
0
LINE
8
前面孔
10
93.300291
20
28.649710
11
95.350291
21
26.149710
0
LINE
8
前面孔
10
95.350291
20
26.149710
11
95.350291
21
16.149710
0
LINE
8
前面孔
10
95.350291
20
16.149710
11
93.300291
21
13.649710
0
LINE
8
前面孔
10
93.300291
20
13.649710
11
89.300291
21
13.649710
0
LINE
8
前面孔
10
89.300291
20
13.649710
11
89.300291
21
28.649710
0
LINE
8
前面孔
10
124.500000
20
28.649710
11
128.500000
21
28.649710
0
LINE
8
前面孔
10
128.500000
20
28.649710
11
130.550000
21
26.149710
0
LINE
8
前面孔
10
130.550000
20
26.149710
11
130.550000
21
16.149710
0
LINE
8
前面孔
10
130.550000
20
16.149710
11
128.500000
21
13.649710
0
LINE
8
前面孔
10
128.500000
20
13.649710
11
124.500000
21
13.649710
0
LINE
8
前面孔
10
124.500000
20
13.649710
11
124.500000
21
28.649710
0
LINE
8
前面孔
10
103.499790
20
17.450000
11
116.499790
21
17.450000
0
LINE
8
前面孔
10
116.499790
20
17.450000
11
116.499790
21
10.450000
0
LINE
8
前面孔
10
116.499790
20
10.450000
11
103.499790
21
10.450000
0
LINE
8
前面孔
10
103.499790
20
10.450000
11
103.499790
21
17.450000
0
LINE
8
前面孔
10
69.363998
20
25.698000
11
81.563998
21
25.698000
0
LINE
8
前面孔
10
81.563998
20
25.698000
11
81.563998
21
12.498000
0
LINE
8
前面孔
10
81.563998
20
12.498000
11
69.363998
21
12.498000
0
LINE
8
前面孔
10
69.363998
20
12.498000
11
69.363998
21
25.698000
0
LINE
8
前面孔
10
51.797794
20
17.450000
11
64.797794
21
17.450000
0
LINE
8
前面孔
10
64.797794
20
17.450000
11
64.797794
21
10.450000
0
LINE
8
前面孔
10
64.797794
20
10.450000
11
51.797794
21
10.450000
0
LINE
8
前面孔
10
51.797794
20
10.450000
11
51.797794
21
17.450000
0
LINE
8
前面孔
10
136.000000
20
24.550000
11
153.299999
21
24.550000
0
LINE
8
前面孔
10
153.299999
20
24.550000
11
153.299999
21
12.550000
0
LINE
8
前面孔
10
153.299999
20
12.550000
11
136.000000
21
12.550000
0
LINE
8
前面孔
10
136.000000
20
12.550000
11
136.000000
21
24.550000
0
LINE
8
前面孔
10
157.800000
20
18.550010
11
156.855531
21
18.263508
0
LINE
8
前面孔
10
156.855531
20
18.263508
11
156.229405
21
17.500572
0
LINE
8
前面孔
10
156.229405
20
17.500572
11
156.132665
21
16.518356
0
LINE
8
前面孔
10
156.132665
20
16.518356
11
156.597918
21
15.647928
0
LINE
8
前面孔
10
156.597918
20
15.647928
11
157.468346
21
15.182675
0
LINE
8
前面孔
10
157.468346
20
15.182675
11
158.450562
21
15.279415
0
LINE
8
前面孔
10
158.450562
20
15.279415
11
159.213498
21
15.905541
0
LINE
8
前面孔
10
159.213498
20
15.905541
11
159.500000
21
16.850010
0
LINE
8
前面孔
10
159.500000
20
16.850010
11
159.370595
21
17.500572
0
LINE
8
前面孔
10
159.370595
20
17.500572
11
159.002082
21
18.052092
0
LINE
8
前面孔
10
159.002082
20
18.052092
11
158.450562
21
18.420605
0
LINE
8
前面孔
10
158.450562
20
18.420605
11
157.800000
21
18.550010
0
LINE
8
前面孔
10
157.800000
20
18.550010
11
157.800000
21
18.550010
0
LINE
8
前面孔
10
174.899990
20
18.500000
11
173.955521
21
18.213498
0
LINE
8
前面孔
10
173.955521
20
18.213498
11
173.329395
21
17.450562
0
LINE
8
前面孔
10
173.329395
20
17.450562
11
173.232655
21
16.468346
0
LINE
8
前面孔
10
173.232655
20
16.468346
11
173.697908
21
15.597918
0
LINE
8
前面孔
10
173.697908
20
15.597918
11
174.568336
21
15.132665
0
LINE
8
前面孔
10
174.568336
20
15.132665
11
175.550552
21
15.229405
0
LINE
8
前面孔
10
175.550552
20
15.229405
11
176.313488
21
15.855531
0
LINE
8
前面孔
10
176.313488
20
15.855531
11
176.599990
21
16.800000
0
LINE
8
前面孔
10
176.599990
20
16.800000
11
176.466396
21
17.461717
0
LINE
8
前面孔
10
176.466396
20
17.461717
11
176.102072
21
18.002082
0
LINE
8
前面孔
10
176.102072
20
18.002082
11
175.561707
21
18.366406
0
LINE
8
前面孔
10
175.561707
20
18.366406
11
174.899990
21
18.500000
0
LINE
8
前面孔
10
174.899990
20
18.500000
11
174.899990
21
18.500000
0
LINE
8
前面孔
10
165.350010
20
20.849990
11
164.544433
21
20.605621
0
LINE
8
前面孔
10
164.544433
20
20.605621
11
164.010385
21
19.954881
0
LINE
8
前面孔
10
164.010385
20
19.954881
11
163.927871
21
19.117109
0
LINE
8
前面孔
10
163.927871
20
19.117109
11
164.324705
21
18.374685
0
LINE
8
前面孔
10
164.324705
20
18.374685
11
165.067129
21
17.977851
0
LINE
8
前面孔
10
165.067129
20
17.977851
11
165.904901
21
18.060365
0
LINE
8
前面孔
10
165.904901
20
18.060365
11
166.555641
21
18.594413
0
LINE
8
前面孔
10
166.555641
20
18.594413
11
166.800010
21
19.399990
0
LINE
8
前面孔
10
166.800010
20
19.399990
11
166.689635
21
19.954881
0
LINE
8
前面孔
10
166.689635
20
19.954881
11
166.375315
21
20.425295
0
LINE
8
前面孔
10
166.375315
20
20.425295
11
165.904901
21
20.739615
0
LINE
8
前面孔
10
165.904901
20
20.739615
11
165.350010
21
20.849990
0
LINE
8
前面孔
10
165.350010
20
20.849990
11
165.350010
21
20.849990
0
LINE
8
前面孔
10
165.350010
20
15.850010
11
164.544433
21
15.605641
0
LINE
8
前面孔
10
164.544433
20
15.605641
11
164.010385
21
14.954901
0
LINE
8
前面孔
10
164.010385
20
14.954901
11
163.927871
21
14.117129
0
LINE
8
前面孔
10
163.927871
20
14.117129
11
164.324705
21
13.374705
0
LINE
8
前面孔
10
164.324705
20
13.374705
11
165.067129
21
12.977871
0
LINE
8
前面孔
10
165.067129
20
12.977871
11
165.904901
21
13.060385
0
LINE
8
前面孔
10
165.904901
20
13.060385
11
166.555641
21
13.594433
0
LINE
8
前面孔
10
166.555641
20
13.594433
11
166.800010
21
14.400010
0
LINE
8
前面孔
10
166.800010
20
14.400010
11
166.689635
21
14.954901
0
LINE
8
前面孔
10
166.689635
20
14.954901
11
166.375315
21
15.425315
0
LINE
8
前面孔
10
166.375315
20
15.425315
11
165.904901
21
15.739635
0
LINE
8
前面孔
10
165.904901
20
15.739635
11
165.350010
21
15.850010
0
LINE
8
前面孔
10
165.350010
20
15.850010
11
165.350010
21
15.850010
0
LINE
8
Layer 1
10
316.000000
20
120.000000
11
316.000000
21
110.062000
0
LINE
8
Layer 1
10
316.000000
20
110.062000
11
313.000000
21
110.062000
0
LINE
8
Layer 1
10
313.000000
20
110.062000
11
313.000000
21
96.187000
0
LINE
8
Layer 1
10
313.000000
20
96.187000
11
316.000000
21
96.187000
0
LINE
8
Layer 1
10
316.000000
20
96.187000
11
316.000000
21
82.312000
0
LINE
8
Layer 1
10
316.000000
20
82.312000
11
313.000000
21
82.312000
0
LINE
8
Layer 1
10
313.000000
20
82.312000
11
313.000000
21
68.437000
0
LINE
8
Layer 1
10
313.000000
20
68.437000
11
316.000000
21
68.437000
0
LINE
8
Layer 1
10
316.000000
20
68.437000
11
316.000000
21
54.562000
0
LINE
8
Layer 1
10
316.000000
20
54.562000
11
313.000000
21
54.562000
0
LINE
8
Layer 1
10
313.000000
20
54.562000
11
313.000000
21
40.687000
0
LINE
8
Layer 1
10
313.000000
20
40.687000
11
316.000000
21
40.687000
0
LINE
8
Layer 1
10
316.000000
20
40.687000
11
316.000000
21
26.812000
0
LINE
8
Layer 1
10
316.000000
20
26.812000
11
313.000000
21
26.812000
0
LINE
8
Layer 1
10
313.000000
20
26.812000
11
313.000000
21
12.937000
0
LINE
8
Layer 1
10
313.000000
20
12.937000
11
316.000000
21
12.937000
0
LINE
8
Layer 1
10
316.000000
20
12.937000
11
316.000000
21
3.000000
0
LINE
8
Layer 1
10
316.000000
20
3.000000
11
328.688000
21
3.000000
0
LINE
8
Layer 1
10
328.688000
20
3.000000
11
328.688000
21
0.000000
0
LINE
8
Layer 1
10
328.688000
20
0.000000
11
342.563000
21
0.000000
0
LINE
8
Layer 1
10
342.563000
20
0.000000
11
342.563000
21
3.000000
0
LINE
8
Layer 1
10
342.563000
20
3.000000
11
356.438000
21
3.000000
0
LINE
8
Layer 1
10
356.438000
20
3.000000
11
356.438000
21
0.000000
0
LINE
8
Layer 1
10
356.438000
20
0.000000
11
370.313000
21
0.000000
0
LINE
8
Layer 1
10
370.313000
20
0.000000
11
370.313000
21
3.000000
0
LINE
8
Layer 1
10
370.313000
20
3.000000
11
384.188000
21
3.000000
0
LINE
8
Layer 1
10
384.188000
20
3.000000
11
384.188000
21
0.000000
0
LINE
8
Layer 1
10
384.188000
20
0.000000
11
398.063000
21
0.000000
0
LINE
8
Layer 1
10
398.063000
20
0.000000
11
398.063000
21
3.000000
0
LINE
8
Layer 1
10
398.063000
20
3.000000
11
411.938000
21
3.000000
0
LINE
8
Layer 1
10
411.938000
20
3.000000
11
411.938000
21
0.000000
0
LINE
8
Layer 1
10
411.938000
20
0.000000
11
425.813000
21
0.000000
0
LINE
8
Layer 1
10
425.813000
20
0.000000
11
425.813000
21
3.000000
0
LINE
8
Layer 1
10
425.813000
20
3.000000
11
439.688000
21
3.000000
0
LINE
8
Layer 1
10
439.688000
20
3.000000
11
439.688000
21
0.000000
0
LINE
8
Layer 1
10
439.688000
20
0.000000
11
453.563000
21
0.000000
0
LINE
8
Layer 1
10
453.563000
20
0.000000
11
453.563000
21
3.000000
0
LINE
8
Layer 1
10
453.563000
20
3.000000
11
467.438000
21
3.000000
0
LINE
8
Layer 1
10
467.438000
20
3.000000
11
467.438000
21
0.000000
0
LINE
8
Layer 1
10
467.438000
20
0.000000
11
481.313000
21
0.000000
0
LINE
8
Layer 1
10
481.313000
20
0.000000
11
481.313000
21
3.000000
0
LINE
8
Layer 1
10
481.313000
20
3.000000
11
494.000000
21
3.000000
0
LINE
8
Layer 1
10
494.000000
20
3.000000
11
494.000000
21
12.937000
0
LINE
8
Layer 1
10
494.000000
20
12.937000
11
497.000000
21
12.937000
0
LINE
8
Layer 1
10
497.000000
20
12.937000
11
497.000000
21
26.812000
0
LINE
8
Layer 1
10
497.000000
20
26.812000
11
494.000000
21
26.812000
0
LINE
8
Layer 1
10
494.000000
20
26.812000
11
494.000000
21
40.687000
0
LINE
8
Layer 1
10
494.000000
20
40.687000
11
497.000000
21
40.687000
0
LINE
8
Layer 1
10
497.000000
20
40.687000
11
497.000000
21
54.562000
0
LINE
8
Layer 1
10
497.000000
20
54.562000
11
494.000000
21
54.562000
0
LINE
8
Layer 1
10
494.000000
20
54.562000
11
494.000000
21
68.437000
0
LINE
8
Layer 1
10
494.000000
20
68.437000
11
497.000000
21
68.437000
0
LINE
8
Layer 1
10
497.000000
20
68.437000
11
497.000000
21
82.312000
0
LINE
8
Layer 1
10
497.000000
20
82.312000
11
494.000000
21
82.312000
0
LINE
8
Layer 1
10
494.000000
20
82.312000
11
494.000000
21
96.187000
0
LINE
8
Layer 1
10
494.000000
20
96.187000
11
497.000000
21
96.187000
0
LINE
8
Layer 1
10
497.000000
20
96.187000
11
497.000000
21
110.062000
0
LINE
8
Layer 1
10
497.000000
20
110.062000
11
494.000000
21
110.062000
0
LINE
8
Layer 1
10
494.000000
20
110.062000
11
494.000000
21
120.000000
0
LINE
8
Layer 1
10
494.000000
20
120.000000
11
481.313000
21
120.000000
0
LINE
8
Layer 1
10
481.313000
20
120.000000
11
481.313000
21
123.000000
0
LINE
8
Layer 1
10
481.313000
20
123.000000
11
467.438000
21
123.000000
0
LINE
8
Layer 1
10
467.438000
20
123.000000
11
467.438000
21
120.000000
0
LINE
8
Layer 1
10
467.438000
20
120.000000
11
453.563000
21
120.000000
0
LINE
8
Layer 1
10
453.563000
20
120.000000
11
453.563000
21
123.000000
0
LINE
8
Layer 1
10
453.563000
20
123.000000
11
439.688000
21
123.000000
0
LINE
8
Layer 1
10
439.688000
20
123.000000
11
439.688000
21
120.000000
0
LINE
8
Layer 1
10
439.688000
20
120.000000
11
425.813000
21
120.000000
0
LINE
8
Layer 1
10
425.813000
20
120.000000
11
425.813000
21
123.000000
0
LINE
8
Layer 1
10
425.813000
20
123.000000
11
411.938000
21
123.000000
0
LINE
8
Layer 1
10
411.938000
20
123.000000
11
411.938000
21
120.000000
0
LINE
8
Layer 1
10
411.938000
20
120.000000
11
398.063000
21
120.000000
0
LINE
8
Layer 1
10
398.063000
20
120.000000
11
398.063000
21
123.000000
0
LINE
8
Layer 1
10
398.063000
20
123.000000
11
384.188000
21
123.000000
0
LINE
8
Layer 1
10
384.188000
20
123.000000
11
384.188000
21
120.000000
0
LINE
8
Layer 1
10
384.188000
20
120.000000
11
370.313000
21
120.000000
0
LINE
8
Layer 1
10
370.313000
20
120.000000
11
370.313000
21
123.000000
0
LINE
8
Layer 1
10
370.313000
20
123.000000
11
356.438000
21
123.000000
0
LINE
8
Layer 1
10
356.438000
20
123.000000
11
356.438000
21
120.000000
0
LINE
8
Layer 1
10
356.438000
20
120.000000
11
342.563000
21
120.000000
0
LINE
8
Layer 1
10
342.563000
20
120.000000
11
342.563000
21
123.000000
0
LINE
8
Layer 1
10
342.563000
20
123.000000
11
328.688000
21
123.000000
0
LINE
8
Layer 1
10
328.688000
20
123.000000
11
328.688000
21
120.000000
0
LINE
8
Layer 1
10
328.688000
20
120.000000
11
316.000000
21
120.000000
0
LINE
8
后面
10
0.000000
20
75.000000
11
0.000000
21
63.937000
0
LINE
8
后面
10
0.000000
20
63.937000
11
3.000000
21
63.937000
0
LINE
8
后面
10
3.000000
20
63.937000
11
3.000000
21
50.062000
0
LINE
8
后面
10
3.000000
20
50.062000
11
0.000000
21
50.062000
0
LINE
8
后面
10
0.000000
20
50.062000
11
0.000000
21
39.000000
0
LINE
8
后面
10
0.000000
20
39.000000
11
15.688000
21
39.000000
0
LINE
8
后面
10
15.688000
20
39.000000
11
15.688000
21
42.000000
0
LINE
8
后面
10
15.688000
20
42.000000
11
29.563000
21
42.000000
0
LINE
8
后面
10
29.563000
20
42.000000
11
29.563000
21
39.000000
0
LINE
8
后面
10
29.563000
20
39.000000
11
43.438000
21
39.000000
0
LINE
8
后面
10
43.438000
20
39.000000
11
43.438000
21
42.000000
0
LINE
8
后面
10
43.438000
20
42.000000
11
57.313000
21
42.000000
0
LINE
8
后面
10
57.313000
20
42.000000
11
57.313000
21
39.000000
0
LINE
8
后面
10
57.313000
20
39.000000
11
71.188000
21
39.000000
0
LINE
8
后面
10
71.188000
20
39.000000
11
71.188000
21
42.000000
0
LINE
8
后面
10
71.188000
20
42.000000
11
85.063000
21
42.000000
0
LINE
8
后面
10
85.063000
20
42.000000
11
85.063000
21
39.000000
0
LINE
8
后面
10
85.063000
20
39.000000
11
98.938000
21
39.000000
0
LINE
8
后面
10
98.938000
20
39.000000
11
98.938000
21
42.000000
0
LINE
8
后面
10
98.938000
20
42.000000
11
112.813000
21
42.000000
0
LINE
8
后面
10
112.813000
20
42.000000
11
112.813000
21
39.000000
0
LINE
8
后面
10
112.813000
20
39.000000
11
126.688000
21
39.000000
0
LINE
8
后面
10
126.688000
20
39.000000
11
126.688000
21
42.000000
0
LINE
8
后面
10
126.688000
20
42.000000
11
140.563000
21
42.000000
0
LINE
8
后面
10
140.563000
20
42.000000
11
140.563000
21
39.000000
0
LINE
8
后面
10
140.563000
20
39.000000
11
154.438000
21
39.000000
0
LINE
8
后面
10
154.438000
20
39.000000
11
154.438000
21
42.000000
0
LINE
8
后面
10
154.438000
20
42.000000
11
168.313000
21
42.000000
0
LINE
8
后面
10
168.313000
20
42.000000
11
168.313000
21
39.000000
0
LINE
8
后面
10
168.313000
20
39.000000
11
184.000000
21
39.000000
0
LINE
8
后面
10
184.000000
20
39.000000
11
184.000000
21
50.062000
0
LINE
8
后面
10
184.000000
20
50.062000
11
181.000000
21
50.062000
0
LINE
8
后面
10
181.000000
20
50.062000
11
181.000000
21
63.937000
0
LINE
8
后面
10
181.000000
20
63.937000
11
184.000000
21
63.937000
0
LINE
8
后面
10
184.000000
20
63.937000
11
184.000000
21
75.000000
0
LINE
8
后面
10
184.000000
20
75.000000
11
168.313000
21
75.000000
0
LINE
8
后面
10
168.313000
20
75.000000
11
168.313000
21
72.000000
0
LINE
8
后面
10
168.313000
20
72.000000
11
154.438000
21
72.000000
0
LINE
8
后面
10
154.438000
20
72.000000
11
154.438000
21
75.000000
0
LINE
8
后面
10
154.438000
20
75.000000
11
140.563000
21
75.000000
0
LINE
8
后面
10
140.563000
20
75.000000
11
140.563000
21
72.000000
0
LINE
8
后面
10
140.563000
20
72.000000
11
126.688000
21
72.000000
0
LINE
8
后面
10
126.688000
20
72.000000
11
126.688000
21
75.000000
0
LINE
8
后面
10
126.688000
20
75.000000
11
112.813000
21
75.000000
0
LINE
8
后面
10
112.813000
20
75.000000
11
112.813000
21
72.000000
0
LINE
8
后面
10
112.813000
20
72.000000
11
98.938000
21
72.000000
0
LINE
8
后面
10
98.938000
20
72.000000
11
98.938000
21
75.000000
0
LINE
8
后面
10
98.938000
20
75.000000
11
85.063000
21
75.000000
0
LINE
8
后面
10
85.063000
20
75.000000
11
85.063000
21
72.000000
0
LINE
8
后面
10
85.063000
20
72.000000
11
71.188000
21
72.000000
0
LINE
8
后面
10
71.188000
20
72.000000
11
71.188000
21
75.000000
0
LINE
8
后面
10
71.188000
20
75.000000
11
57.313000
21
75.000000
0
LINE
8
后面
10
57.313000
20
75.000000
11
57.313000
21
72.000000
0
LINE
8
后面
10
57.313000
20
72.000000
11
43.438000
21
72.000000
0
LINE
8
后面
10
43.438000
20
72.000000
11
43.438000
21
75.000000
0
LINE
8
后面
10
43.438000
20
75.000000
11
29.563000
21
75.000000
0
LINE
8
后面
10
29.563000
20
75.000000
11
29.563000
21
72.000000
0
LINE
8
后面
10
29.563000
20
72.000000
11
15.688000
21
72.000000
0
LINE
8
后面
10
15.688000
20
72.000000
11
15.688000
21
75.000000
0
LINE
8
后面
10
15.688000
20
75.000000
11
0.000000
21
75.000000
0
LINE
8
后面
10
0.000000
20
75.000000
11
0.000000
21
75.000000
0
LINE
8
后面板孔
10
152.000000
20
54.024990
11
165.100000
21
54.024990
0
LINE
8
后面板孔
10
165.100000
20
54.024990
11
165.100000
21
51.824990
0
LINE
8
后面板孔
10
165.100000
20
51.824990
11
152.000000
21
51.824990
0
LINE
8
后面板孔
10
152.000000
20
51.824990
11
152.000000
21
54.024990
0
LINE
8
后面板孔
10
16.205729
20
64.415110
11
15.150128
21
64.257042
0
LINE
8
后面板孔
10
15.150128
20
64.257042
11
14.205676
21
63.808401
0
LINE
8
后面板孔
10
14.205676
20
63.808401
11
13.429760
21
63.107529
0
LINE
8
后面板孔
10
13.429760
20
63.107529
11
12.879763
21
62.192770
0
LINE
8
后面板孔
10
12.879763
20
62.192770
11
12.621837
21
61.157032
0
LINE
8
后面板孔
10
12.621837
20
61.157032
11
12.674902
21
60.112785
0
LINE
8
后面板孔
10
12.674902
20
60.112785
11
13.025493
21
59.127719
0
LINE
8
后面板孔
10
13.025493
20
59.127719
11
13.660145
21
58.269526
0
LINE
8
后面板孔
10
13.660145
20
58.269526
11
14.518338
21
57.634874
0
LINE
8
后面板孔
10
14.518338
20
57.634874
11
15.503404
21
57.284283
0
LINE
8
后面板孔
10
15.503404
20
57.284283
11
16.547651
21
57.231218
0
LINE
8
后面板孔
10
16.547651
20
57.231218
11
17.583389
21
57.489144
0
LINE
8
后面板孔
10
17.583389
20
57.489144
11
18.498148
21
58.039141
0
LINE
8
后面板孔
10
18.498148
20
58.039141
11
19.199020
21
58.815057
0
LINE
8
后面板孔
10
19.199020
20
58.815057
11
19.647661
21
59.759509
0
LINE
8
后面板孔
10
19.647661
20
59.759509
11
19.805729
21
60.815110
0
LINE
8
后面板孔
10
19.805729
20
60.815110
11
19.531695
21
62.192770
0
LINE
8
后面板孔
10
19.531695
20
62.192770
11
18.751313
21
63.360694
0
LINE
8
后面板孔
10
18.751313
20
63.360694
11
17.583389
21
64.141076
0
LINE
8
后面板孔
10
17.583389
20
64.141076
11
16.205729
21
64.415110
0
LINE
8
后面板孔
10
16.205729
20
64.415110
11
16.205729
21
64.415110
0
LINE
8
后面板孔
10
128.060000
20
62.000000
11
138.060000
21
62.000000
0
LINE
8
后面板孔
10
138.060000
20
62.000000
11
138.060000
21
52.000000
0
LINE
8
后面板孔
10
138.060000
20
52.000000
11
128.060000
21
52.000000
0
LINE
8
后面板孔
10
128.060000
20
52.000000
11
128.060000
21
62.000000
0
LINE
8
后面板孔
10
59.650002
20
60.820010
11
124.150002
21
60.820010
0
LINE
8
后面板孔
10
124.150002
20
60.820010
11
124.150002
21
51.320010
0
LINE
8
后面板孔
10
124.150002
20
51.320010
11
59.650002
21
51.320010
0
LINE
8
后面板孔
10
59.650002
20
51.320010
11
59.650002
21
60.820010
0
LINE
8
Layer 1
10
316.000000
20
246.000000
11
316.000000
21
236.062000
0
LINE
8
Layer 1
10
316.000000
20
236.062000
11
313.000000
21
236.062000
0
LINE
8
Layer 1
10
313.000000
20
236.062000
11
313.000000
21
222.187000
0
LINE
8
Layer 1
10
313.000000
20
222.187000
11
316.000000
21
222.187000
0
LINE
8
Layer 1
10
316.000000
20
222.187000
11
316.000000
21
208.312000
0
LINE
8
Layer 1
10
316.000000
20
208.312000
11
313.000000
21
208.312000
0
LINE
8
Layer 1
10
313.000000
20
208.312000
11
313.000000
21
194.437000
0
LINE
8
Layer 1
10
313.000000
20
194.437000
11
316.000000
21
194.437000
0
LINE
8
Layer 1
10
316.000000
20
194.437000
11
316.000000
21
180.562000
0
LINE
8
Layer 1
10
316.000000
20
180.562000
11
313.000000
21
180.562000
0
LINE
8
Layer 1
10
313.000000
20
180.562000
11
313.000000
21
166.687000
0
LINE
8
Layer 1
10
313.000000
20
166.687000
11
316.000000
21
166.687000
0
LINE
8
Layer 1
10
316.000000
20
166.687000
11
316.000000
21
152.812000
0
LINE
8
Layer 1
10
316.000000
20
152.812000
11
313.000000
21
152.812000
0
LINE
8
Layer 1
10
313.000000
20
152.812000
11
313.000000
21
138.937000
0
LINE
8
Layer 1
10
313.000000
20
138.937000
11
316.000000
21
138.937000
0
LINE
8
Layer 1
10
316.000000
20
138.937000
11
316.000000
21
129.000000
0
LINE
8
Layer 1
10
316.000000
20
129.000000
11
328.688000
21
129.000000
0
LINE
8
Layer 1
10
328.688000
20
129.000000
11
328.688000
21
126.000000
0
LINE
8
Layer 1
10
328.688000
20
126.000000
11
342.563000
21
126.000000
0
LINE
8
Layer 1
10
342.563000
20
126.000000
11
342.563000
21
129.000000
0
LINE
8
Layer 1
10
342.563000
20
129.000000
11
356.438000
21
129.000000
0
LINE
8
Layer 1
10
356.438000
20
129.000000
11
356.438000
21
126.000000
0
LINE
8
Layer 1
10
356.438000
20
126.000000
11
370.313000
21
126.000000
0
LINE
8
Layer 1
10
370.313000
20
126.000000
11
370.313000
21
129.000000
0
LINE
8
Layer 1
10
370.313000
20
129.000000
11
384.188000
21
129.000000
0
LINE
8
Layer 1
10
384.188000
20
129.000000
11
384.188000
21
126.000000
0
LINE
8
Layer 1
10
384.188000
20
126.000000
11
398.063000
21
126.000000
0
LINE
8
Layer 1
10
398.063000
20
126.000000
11
398.063000
21
129.000000
0
LINE
8
Layer 1
10
398.063000
20
129.000000
11
411.938000
21
129.000000
0
LINE
8
Layer 1
10
411.938000
20
129.000000
11
411.938000
21
126.000000
0
LINE
8
Layer 1
10
411.938000
20
126.000000
11
425.813000
21
126.000000
0
LINE
8
Layer 1
10
425.813000
20
126.000000
11
425.813000
21
129.000000
0
LINE
8
Layer 1
10
425.813000
20
129.000000
11
439.688000
21
129.000000
0
LINE
8
Layer 1
10
439.688000
20
129.000000
11
439.688000
21
126.000000
0
LINE
8
Layer 1
10
439.688000
20
126.000000
11
453.563000
21
126.000000
0
LINE
8
Layer 1
10
453.563000
20
126.000000
11
453.563000
21
129.000000
0
LINE
8
Layer 1
10
453.563000
20
129.000000
11
467.438000
21
129.000000
0
LINE
8
Layer 1
10
467.438000
20
129.000000
11
467.438000
21
126.000000
0
LINE
8
Layer 1
10
467.438000
20
126.000000
11
481.313000
21
126.000000
0
LINE
8
Layer 1
10
481.313000
20
126.000000
11
481.313000
21
129.000000
0
LINE
8
Layer 1
10
481.313000
20
129.000000
11
494.000000
21
129.000000
0
LINE
8
Layer 1
10
494.000000
20
129.000000
11
494.000000
21
138.937000
0
LINE
8
Layer 1
10
494.000000
20
138.937000
11
497.000000
21
138.937000
0
LINE
8
Layer 1
10
497.000000
20
138.937000
11
497.000000
21
152.812000
0
LINE
8
Layer 1
10
497.000000
20
152.812000
11
494.000000
21
152.812000
0
LINE
8
Layer 1
10
494.000000
20
152.812000
11
494.000000
21
166.687000
0
LINE
8
Layer 1
10
494.000000
20
166.687000
11
497.000000
21
166.687000
0
LINE
8
Layer 1
10
497.000000
20
166.687000
11
497.000000
21
180.562000
0
LINE
8
Layer 1
10
497.000000
20
180.562000
11
494.000000
21
180.562000
0
LINE
8
Layer 1
10
494.000000
20
180.562000
11
494.000000
21
194.437000
0
LINE
8
Layer 1
10
494.000000
20
194.437000
11
497.000000
21
194.437000
0
LINE
8
Layer 1
10
497.000000
20
194.437000
11
497.000000
21
208.312000
0
LINE
8
Layer 1
10
497.000000
20
208.312000
11
494.000000
21
208.312000
0
LINE
8
Layer 1
10
494.000000
20
208.312000
11
494.000000
21
222.187000
0
LINE
8
Layer 1
10
494.000000
20
222.187000
11
497.000000
21
222.187000
0
LINE
8
Layer 1
10
497.000000
20
222.187000
11
497.000000
21
236.062000
0
LINE
8
Layer 1
10
497.000000
20
236.062000
11
494.000000
21
236.062000
0
LINE
8
Layer 1
10
494.000000
20
236.062000
11
494.000000
21
246.000000
0
LINE
8
Layer 1
10
494.000000
20
246.000000
11
481.313000
21
246.000000
0
LINE
8
Layer 1
10
481.313000
20
246.000000
11
481.313000
21
249.000000
0
LINE
8
Layer 1
10
481.313000
20
249.000000
11
467.438000
21
249.000000
0
LINE
8
Layer 1
10
467.438000
20
249.000000
11
467.438000
21
246.000000
0
LINE
8
Layer 1
10
467.438000
20
246.000000
11
453.563000
21
246.000000
0
LINE
8
Layer 1
10
453.563000
20
246.000000
11
453.563000
21
249.000000
0
LINE
8
Layer 1
10
453.563000
20
249.000000
11
439.688000
21
249.000000
0
LINE
8
Layer 1
10
439.688000
20
249.000000
11
439.688000
21
246.000000
0
LINE
8
Layer 1
10
439.688000
20
246.000000
11
425.813000
21
246.000000
0
LINE
8
Layer 1
10
425.813000
20
246.000000
11
425.813000
21
249.000000
0
LINE
8
Layer 1
10
425.813000
20
249.000000
11
411.938000
21
249.000000
0
LINE
8
Layer 1
10
411.938000
20
249.000000
11
411.938000
21
246.000000
0
LINE
8
Layer 1
10
411.938000
20
246.000000
11
398.063000
21
246.000000
0
LINE
8
Layer 1
10
398.063000
20
246.000000
11
398.063000
21
249.000000
0
LINE
8
Layer 1
10
398.063000
20
249.000000
11
384.188000
21
249.000000
0
LINE
8
Layer 1
10
384.188000
20
249.000000
11
384.188000
21
246.000000
0
LINE
8
Layer 1
10
384.188000
20
246.000000
11
370.313000
21
246.000000
0
LINE
8
Layer 1
10
370.313000
20
246.000000
11
370.313000
21
249.000000
0
LINE
8
Layer 1
10
370.313000
20
249.000000
11
356.438000
21
249.000000
0
LINE
8
Layer 1
10
356.438000
20
249.000000
11
356.438000
21
246.000000
0
LINE
8
Layer 1
10
356.438000
20
246.000000
11
342.563000
21
246.000000
0
LINE
8
Layer 1
10
342.563000
20
246.000000
11
342.563000
21
249.000000
0
LINE
8
Layer 1
10
342.563000
20
249.000000
11
328.688000
21
249.000000
0
LINE
8
Layer 1
10
328.688000
20
249.000000
11
328.688000
21
246.000000
0
LINE
8
Layer 1
10
328.688000
20
246.000000
11
316.000000
21
246.000000
0
LINE
8
Layer 1
10
316.000000
20
246.000000
11
316.000000
21
246.000000
0
LINE
8
底板孔
10
324.834990
20
227.000000
11
323.946078
21
226.730351
0
LINE
8
底板孔
10
323.946078
20
226.730351
11
323.356783
21
226.012293
0
LINE
8
底板孔
10
323.356783
20
226.012293
11
323.265734
21
225.087855
0
LINE
8
底板孔
10
323.265734
20
225.087855
11
323.703619
21
224.268629
0
LINE
8
底板孔
10
323.703619
20
224.268629
11
324.522845
21
223.830744
0
LINE
8
底板孔
10
324.522845
20
223.830744
11
325.447283
21
223.921793
0
LINE
8
底板孔
10
325.447283
20
223.921793
11
326.165341
21
224.511088
0
LINE
8
底板孔
10
326.165341
20
224.511088
11
326.434990
21
225.400000
0
LINE
8
底板孔
10
326.434990
20
225.400000
11
326.313197
21
226.012293
0
LINE
8
底板孔
10
326.313197
20
226.012293
11
325.966361
21
226.531371
0
LINE
8
底板孔
10
325.966361
20
226.531371
11
325.447283
21
226.878207
0
LINE
8
底板孔
10
325.447283
20
226.878207
11
324.834990
21
227.000000
0
LINE
8
底板孔
10
324.834990
20
227.000000
11
324.834990
21
227.000000
0
LINE
8
底板孔
10
486.049990
20
233.399999
11
485.161078
21
233.130350
0
LINE
8
底板孔
10
485.161078
20
233.130350
11
484.571783
21
232.412292
0
LINE
8
底板孔
10
484.571783
20
232.412292
11
484.480734
21
231.487854
0
LINE
8
底板孔
10
484.480734
20
231.487854
11
484.918619
21
230.668628
0
LINE
8
底板孔
10
484.918619
20
230.668628
11
485.737845
21
230.230743
0
LINE
8
底板孔
10
485.737845
20
230.230743
11
486.662283
21
230.321792
0
LINE
8
底板孔
10
486.662283
20
230.321792
11
487.380341
21
230.911087
0
LINE
8
底板孔
10
487.380341
20
230.911087
11
487.649990
21
231.799999
0
LINE
8
底板孔
10
487.649990
20
231.799999
11
487.528197
21
232.412292
0
LINE
8
底板孔
10
487.528197
20
232.412292
11
487.181361
21
232.931370
0
LINE
8
底板孔
10
487.181361
20
232.931370
11
486.662283
21
233.278206
0
LINE
8
底板孔
10
486.662283
20
233.278206
11
486.049990
21
233.399999
0
LINE
8
底板孔
10
486.049990
20
233.399999
11
486.049990
21
233.399999
0
LINE
8
底板孔
10
486.049990
20
139.000000
11
485.161078
21
138.730351
0
LINE
8
底板孔
10
485.161078
20
138.730351
11
484.571783
21
138.012293
0
LINE
8
底板孔
10
484.571783
20
138.012293
11
484.480734
21
137.087855
0
LINE
8
底板孔
10
484.480734
20
137.087855
11
484.918619
21
136.268629
0
LINE
8
底板孔
10
484.918619
20
136.268629
11
485.737845
21
135.830744
0
LINE
8
底板孔
10
485.737845
20
135.830744
11
486.662283
21
135.921793
0
LINE
8
底板孔
10
486.662283
20
135.921793
11
487.380341
21
136.511088
0
LINE
8
底板孔
10
487.380341
20
136.511088
11
487.649990
21
137.400000
0
LINE
8
底板孔
10
487.649990
20
137.400000
11
487.528197
21
138.012293
0
LINE
8
底板孔
10
487.528197
20
138.012293
11
487.181361
21
138.531371
0
LINE
8
底板孔
10
487.181361
20
138.531371
11
486.662283
21
138.878207
0
LINE
8
底板孔
10
486.662283
20
138.878207
11
486.049990
21
139.000000
0
LINE
8
底板孔
10
486.049990
20
139.000000
11
486.049990
21
139.000000
0
LINE
8
底板孔
10
366.600010
20
138.000000
11
365.711098
21
137.730351
0
LINE
8
底板孔
10
365.711098
20
137.730351
11
365.121803
21
137.012293
0
LINE
8
底板孔
10
365.121803
20
137.012293
11
365.030754
21
136.087855
0
LINE
8
底板孔
10
365.030754
20
136.087855
11
365.468639
21
135.268629
0
LINE
8
底板孔
10
365.468639
20
135.268629
11
366.287865
21
134.830744
0
LINE
8
底板孔
10
366.287865
20
134.830744
11
367.212303
21
134.921793
0
LINE
8
底板孔
10
367.212303
20
134.921793
11
367.930361
21
135.511088
0
LINE
8
底板孔
10
367.930361
20
135.511088
11
368.200010
21
136.400000
0
LINE
8
底板孔
10
368.200010
20
136.400000
11
368.078217
21
137.012293
0
LINE
8
底板孔
10
368.078217
20
137.012293
11
367.731381
21
137.531371
0
LINE
8
底板孔
10
367.731381
20
137.531371
11
367.212303
21
137.878207
0
LINE
8
底板孔
10
367.212303
20
137.878207
11
366.600010
21
138.000000
0
LINE
8
底板孔
10
366.600010
20
138.000000
11
366.600010
21
138.000000
0
LINE
8
底板通风孔
10
356.574580
20
213.969000
11
361.543415
21
213.969000
0
LINE
8
底板通风孔
10
361.543415
20
213.969000
11
361.543415
21
162.768397
0
LINE
8
底板通风孔
10
361.543415
20
162.768397
11
356.574580
21
162.768397
0
LINE
8
底板通风孔
10
356.574580
20
162.768397
11
356.574580
21
213.969000
0
LINE
8
底板通风孔
10
446.574580
20
213.969000
11
451.543415
21
213.969000
0
LINE
8
底板通风孔
10
451.543415
20
213.969000
11
451.543415
21
162.768397
0
LINE
8
底板通风孔
10
451.543415
20
162.768397
11
446.574580
21
162.768397
0
LINE
8
底板通风孔
10
446.574580
20
162.768397
11
446.574580
21
213.969000
0
LINE
8
底板通风孔
10
456.574580
20
213.969000
11
461.543415
21
213.969000
0
LINE
8
底板通风孔
10
461.543415
20
213.969000
11
461.543415
21
162.768397
0
LINE
8
底板通风孔
10
461.543415
20
162.768397
11
456.574580
21
162.768397
0
LINE
8
底板通风孔
10
456.574580
20
162.768397
11
456.574580
21
213.969000
0
LINE
8
底板通风孔
10
436.574580
20
213.969000
11
441.543415
21
213.969000
0
LINE
8
底板通风孔
10
441.543415
20
213.969000
11
441.543415
21
162.768397
0
LINE
8
底板通风孔
10
441.543415
20
162.768397
11
436.574580
21
162.768397
0
LINE
8
底板通风孔
10
436.574580
20
162.768397
11
436.574580
21
213.969000
0
LINE
8
底板通风孔
10
426.574580
20
213.969000
11
431.543415
21
213.969000
0
LINE
8
底板通风孔
10
431.543415
20
213.969000
11
431.543415
21
162.768397
0
LINE
8
底板通风孔
10
431.543415
20
162.768397
11
426.574580
21
162.768397
0
LINE
8
底板通风孔
10
426.574580
20
162.768397
11
426.574580
21
213.969000
0
LINE
8
底板通风孔
10
386.574580
20
213.969000
11
391.543415
21
213.969000
0
LINE
8
底板通风孔
10
391.543415
20
213.969000
11
391.543415
21
162.768397
0
LINE
8
底板通风孔
10
391.543415
20
162.768397
11
386.574580
21
162.768397
0
LINE
8
底板通风孔
10
386.574580
20
162.768397
11
386.574580
21
213.969000
0
LINE
8
底板通风孔
10
376.574580
20
213.969000
11
381.543415
21
213.969000
0
LINE
8
底板通风孔
10
381.543415
20
213.969000
11
381.543415
21
162.768397
0
LINE
8
底板通风孔
10
381.543415
20
162.768397
11
376.574580
21
162.768397
0
LINE
8
底板通风孔
10
376.574580
20
162.768397
11
376.574580
21
213.969000
0
LINE
8
底板通风孔
10
366.574580
20
213.969000
11
371.543415
21
213.969000
0
LINE
8
底板通风孔
10
371.543415
20
213.969000
11
371.543415
21
162.768397
0
LINE
8
底板通风孔
10
371.543415
20
162.768397
11
366.574580
21
162.768397
0
LINE
8
底板通风孔
10
366.574580
20
162.768397
11
366.574580
21
213.969000
0
LINE
8
右侧
10
190.264583
20
90.081000
11
190.264583
21
79.018000
0
LINE
8
右侧
10
190.264583
20
79.018000
11
187.264583
21
79.018000
0
LINE
8
右侧
10
187.264583
20
79.018000
11
187.264583
21
65.143000
0
LINE
8
右侧
10
187.264583
20
65.143000
11
190.264583
21
65.143000
0
LINE
8
右侧
10
190.264583
20
65.143000
11
190.264583
21
50.080750
0
LINE
8
右侧
10
190.264583
20
50.080750
11
200.202583
21
50.080750
0
LINE
8
右侧
10
200.202583
20
50.080750
11
200.202583
21
57.081000
0
LINE
8
右侧
10
200.202583
20
57.081000
11
214.077583
21
57.081000
0
LINE
8
右侧
10
214.077583
20
57.081000
11
214.077583
21
54.081000
0
LINE
8
右侧
10
214.077583
20
54.081000
11
227.952583
21
54.081000
0
LINE
8
右侧
10
227.952583
20
54.081000
11
227.952583
21
57.081000
0
LINE
8
右侧
10
227.952583
20
57.081000
11
241.827583
21
57.081000
0
LINE
8
右侧
10
241.827583
20
57.081000
11
241.827583
21
54.081000
0
LINE
8
右侧
10
241.827583
20
54.081000
11
255.702583
21
54.081000
0
LINE
8
右侧
10
255.702583
20
54.081000
11
255.702583
21
57.081000
0
LINE
8
右侧
10
255.702583
20
57.081000
11
269.577583
21
57.081000
0
LINE
8
右侧
10
269.577583
20
57.081000
11
269.577583
21
54.081000
0
LINE
8
右侧
10
269.577583
20
54.081000
11
283.452583
21
54.081000
0
LINE
8
右侧
10
283.452583
20
54.081000
11
283.452583
21
57.081000
0
LINE
8
右侧
10
283.452583
20
57.081000
11
297.327583
21
57.081000
0
LINE
8
右侧
10
297.327583
20
57.081000
11
297.327583
21
50.080750
0
LINE
8
右侧
10
297.327583
20
50.080750
11
307.264583
21
50.080750
0
LINE
8
右侧
10
307.264583
20
50.080750
11
307.264583
21
65.143000
0
LINE
8
右侧
10
307.264583
20
65.143000
11
310.264583
21
65.143000
0
LINE
8
右侧
10
310.264583
20
65.143000
11
310.264583
21
79.018000
0
LINE
8
右侧
10
310.264583
20
79.018000
11
307.264583
21
79.018000
0
LINE
8
右侧
10
307.264583
20
79.018000
11
307.264583
21
90.081000
0
LINE
8
右侧
10
307.264583
20
90.081000
11
297.327583
21
90.081000
0
LINE
8
右侧
10
297.327583
20
90.081000
11
297.327583
21
87.081000
0
LINE
8
右侧
10
297.327583
20
87.081000
11
283.452583
21
87.081000
0
LINE
8
右侧
10
283.452583
20
87.081000
11
283.452583
21
90.081000
0
LINE
8
右侧
10
283.452583
20
90.081000
11
269.577583
21
90.081000
0
LINE
8
右侧
10
269.577583
20
90.081000
11
269.577583
21
87.081000
0
LINE
8
右侧
10
269.577583
20
87.081000
11
255.702583
21
87.081000
0
LINE
8
右侧
10
255.702583
20
87.081000
11
255.702583
21
90.081000
0
LINE
8
右侧
10
255.702583
20
90.081000
11
241.827583
21
90.081000
0
LINE
8
右侧
10
241.827583
20
90.081000
11
241.827583
21
87.081000
0
LINE
8
右侧
10
241.827583
20
87.081000
11
227.952583
21
87.081000
0
LINE
8
右侧
10
227.952583
20
87.081000
11
227.952583
21
90.081000
0
LINE
8
右侧
10
227.952583
20
90.081000
11
214.077583
21
90.081000
0
LINE
8
右侧
10
214.077583
20
90.081000
11
214.077583
21
87.081000
0
LINE
8
右侧
10
214.077583
20
87.081000
11
200.202583
21
87.081000
0
LINE
8
右侧
10
200.202583
20
87.081000
11
200.202583
21
90.081000
0
LINE
8
右侧
10
200.202583
20
90.081000
11
190.264583
21
90.081000
0
LINE
8
右侧通风孔
10
206.363213
20
81.438410
11
209.603758
21
81.438410
0
LINE
8
右侧通风孔
10
209.603758
20
81.438410
11
209.603758
21
65.235687
0
LINE
8
右侧通风孔
10
209.603758
20
65.235687
11
206.363213
21
65.235687
0
LINE
8
右侧通风孔
10
206.363213
20
65.235687
11
206.363213
21
81.438410
0
LINE
8
右侧通风孔
10
216.702863
20
81.438410
11
219.943408
21
81.438410
0
LINE
8
右侧通风孔
10
219.943408
20
81.438410
11
219.943408
21
65.235687
0
LINE
8
右侧通风孔
10
219.943408
20
65.235687
11
216.702863
21
65.235687
0
LINE
8
右侧通风孔
10
216.702863
20
65.235687
11
216.702863
21
81.438410
0
LINE
8
右侧通风孔
10
237.382163
20
81.438410
11
240.622708
21
81.438410
0
LINE
8
右侧通风孔
10
240.622708
20
81.438410
11
240.622708
21
65.235687
0
LINE
8
右侧通风孔
10
240.622708
20
65.235687
11
237.382163
21
65.235687
0
LINE
8
右侧通风孔
10
237.382163
20
65.235687
11
237.382163
21
81.438410
0
LINE
8
右侧通风孔
10
227.042503
20
81.438410
11
230.283048
21
81.438410
0
LINE
8
右侧通风孔
10
230.283048
20
81.438410
11
230.283048
21
65.235687
0
LINE
8
右侧通风孔
10
230.283048
20
65.235687
11
227.042503
21
65.235687
0
LINE
8
右侧通风孔
10
227.042503
20
65.235687
11
227.042503
21
81.438410
0
LINE
8
右侧通风孔
10
247.721813
20
81.438410
11
250.962358
21
81.438410
0
LINE
8
右侧通风孔
10
250.962358
20
81.438410
11
250.962358
21
65.235687
0
LINE
8
右侧通风孔
10
250.962358
20
65.235687
11
247.721813
21
65.235687
0
LINE
8
右侧通风孔
10
247.721813
20
65.235687
11
247.721813
21
81.438410
0
LINE
8
右侧通风孔
10
289.080413
20
81.438410
11
292.320958
21
81.438410
0
LINE
8
右侧通风孔
10
292.320958
20
81.438410
11
292.320958
21
65.235687
0
LINE
8
右侧通风孔
10
292.320958
20
65.235687
11
289.080413
21
65.235687
0
LINE
8
右侧通风孔
10
289.080413
20
65.235687
11
289.080413
21
81.438410
0
LINE
8
右侧通风孔
10
258.061463
20
81.438410
11
261.302008
21
81.438410
0
LINE
8
右侧通风孔
10
261.302008
20
81.438410
11
261.302008
21
65.235687
0
LINE
8
右侧通风孔
10
261.302008
20
65.235687
11
258.061463
21
65.235687
0
LINE
8
右侧通风孔
10
258.061463
20
65.235687
11
258.061463
21
81.438410
0
LINE
8
右侧通风孔
10
268.401123
20
81.438410
11
271.641668
21
81.438410
0
LINE
8
右侧通风孔
10
271.641668
20
81.438410
11
271.641668
21
65.235687
0
LINE
8
右侧通风孔
10
271.641668
20
65.235687
11
268.401123
21
65.235687
0
LINE
8
右侧通风孔
10
268.401123
20
65.235687
11
268.401123
21
81.438410
0
LINE
8
右侧通风孔
10
278.740753
20
81.438410
11
281.981298
21
81.438410
0
LINE
8
右侧通风孔
10
281.981298
20
81.438410
11
281.981298
21
65.235687
0
LINE
8
右侧通风孔
10
281.981298
20
65.235687
11
278.740753
21
65.235687
0
LINE
8
右侧通风孔
10
278.740753
20
65.235687
11
278.740753
21
81.438410
0
LINE
8
左侧
10
190.264583
20
44.202000
11
190.264583
21
33.139000
0
LINE
8
左侧
10
190.264583
20
33.139000
11
187.264583
21
33.139000
0
LINE
8
左侧
10
187.264583
20
33.139000
11
187.264583
21
19.264000
0
LINE
8
左侧
10
187.264583
20
19.264000
11
190.264583
21
19.264000
0
LINE
8
左侧
10
190.264583
20
19.264000
11
190.264583
21
4.201920
0
LINE
8
左侧
10
190.264583
20
4.201920
11
200.202583
21
4.201920
0
LINE
8
左侧
10
200.202583
20
4.201920
11
200.202583
21
11.202000
0
LINE
8
左侧
10
200.202583
20
11.202000
11
214.077583
21
11.202000
0
LINE
8
左侧
10
214.077583
20
11.202000
11
214.077583
21
8.202000
0
LINE
8
左侧
10
214.077583
20
8.202000
11
227.952583
21
8.202000
0
LINE
8
左侧
10
227.952583
20
8.202000
11
227.952583
21
11.202000
0
LINE
8
左侧
10
227.952583
20
11.202000
11
241.827583
21
11.202000
0
LINE
8
左侧
10
241.827583
20
11.202000
11
241.827583
21
8.202000
0
LINE
8
左侧
10
241.827583
20
8.202000
11
255.702583
21
8.202000
0
LINE
8
左侧
10
255.702583
20
8.202000
11
255.702583
21
11.202000
0
LINE
8
左侧
10
255.702583
20
11.202000
11
269.577583
21
11.202000
0
LINE
8
左侧
10
269.577583
20
11.202000
11
269.577583
21
8.202000
0
LINE
8
左侧
10
269.577583
20
8.202000
11
283.452583
21
8.202000
0
LINE
8
左侧
10
283.452583
20
8.202000
11
283.452583
21
11.202000
0
LINE
8
左侧
10
283.452583
20
11.202000
11
297.327583
21
11.202000
0
LINE
8
左侧
10
297.327583
20
11.202000
11
297.327583
21
4.201920
0
LINE
8
左侧
10
297.327583
20
4.201920
11
307.264583
21
4.201920
0
LINE
8
左侧
10
307.264583
20
4.201920
11
307.264583
21
19.264000
0
LINE
8
左侧
10
307.264583
20
19.264000
11
310.264583
21
19.264000
0
LINE
8
左侧
10
310.264583
20
19.264000
11
310.264583
21
33.139000
0
LINE
8
左侧
10
310.264583
20
33.139000
11
307.264583
21
33.139000
0
LINE
8
左侧
10
307.264583
20
33.139000
11
307.264583
21
44.202000
0
LINE
8
左侧
10
307.264583
20
44.202000
11
297.327583
21
44.202000
0
LINE
8
左侧
10
297.327583
20
44.202000
11
297.327583
21
41.202000
0
LINE
8
左侧
10
297.327583
20
41.202000
11
283.452583
21
41.202000
0
LINE
8
左侧
10
283.452583
20
41.202000
11
283.452583
21
44.202000
0
LINE
8
左侧
10
283.452583
20
44.202000
11
269.577583
21
44.202000
0
LINE
8
左侧
10
269.577583
20
44.202000
11
269.577583
21
41.202000
0
LINE
8
左侧
10
269.577583
20
41.202000
11
255.702583
21
41.202000
0
LINE
8
左侧
10
255.702583
20
41.202000
11
255.702583
21
44.202000
0
LINE
8
左侧
10
255.702583
20
44.202000
11
241.827583
21
44.202000
0
LINE
8
左侧
10
241.827583
20
44.202000
11
241.827583
21
41.202000
0
LINE
8
左侧
10
241.827583
20
41.202000
11
227.952583
21
41.202000
0
LINE
8
左侧
10
227.952583
20
41.202000
11
227.952583
21
44.202000
0
LINE
8
左侧
10
227.952583
20
44.202000
11
214.077583
21
44.202000
0
LINE
8
左侧
10
214.077583
20
44.202000
11
214.077583
21
41.202000
0
LINE
8
左侧
10
214.077583
20
41.202000
11
200.202583
21
41.202000
0
LINE
8
左侧
10
200.202583
20
41.202000
11
200.202583
21
44.202000
0
LINE
8
左侧
10
200.202583
20
44.202000
11
190.264583
21
44.202000
0
LINE
8
左侧通风孔
10
206.264580
20
36.270410
11
209.505125
21
36.270410
0
LINE
8
左侧通风孔
10
209.505125
20
36.270410
11
209.505125
21
20.067687
0
LINE
8
左侧通风孔
10
209.505125
20
20.067687
11
206.264580
21
20.067687
0
LINE
8
左侧通风孔
10
206.264580
20
20.067687
11
206.264580
21
36.270410
0
LINE
8
左侧通风孔
10
216.604230
20
36.270410
11
219.844775
21
36.270410
0
LINE
8
左侧通风孔
10
219.844775
20
36.270410
11
219.844775
21
20.067687
0
LINE
8
左侧通风孔
10
219.844775
20
20.067687
11
216.604230
21
20.067687
0
LINE
8
左侧通风孔
10
216.604230
20
20.067687
11
216.604230
21
36.270410
0
LINE
8
左侧通风孔
10
237.283530
20
36.270410
11
240.524075
21
36.270410
0
LINE
8
左侧通风孔
10
240.524075
20
36.270410
11
240.524075
21
20.067687
0
LINE
8
左侧通风孔
10
240.524075
20
20.067687
11
237.283530
21
20.067687
0
LINE
8
左侧通风孔
10
237.283530
20
20.067687
11
237.283530
21
36.270410
0
LINE
8
左侧通风孔
10
226.943870
20
36.270410
11
230.184415
21
36.270410
0
LINE
8
左侧通风孔
10
230.184415
20
36.270410
11
230.184415
21
20.067687
0
LINE
8
左侧通风孔
10
230.184415
20
20.067687
11
226.943870
21
20.067687
0
LINE
8
左侧通风孔
10
226.943870
20
20.067687
11
226.943870
21
36.270410
0
LINE
8
左侧通风孔
10
247.623180
20
36.270410
11
250.863725
21
36.270410
0
LINE
8
左侧通风孔
10
250.863725
20
36.270410
11
250.863725
21
20.067687
0
LINE
8
左侧通风孔
10
250.863725
20
20.067687
11
247.623180
21
20.067687
0
LINE
8
左侧通风孔
10
247.623180
20
20.067687
11
247.623180
21
36.270410
0
LINE
8
左侧通风孔
10
288.981780
20
36.270410
11
292.222325
21
36.270410
0
LINE
8
左侧通风孔
10
292.222325
20
36.270410
11
292.222325
21
20.067687
0
LINE
8
左侧通风孔
10
292.222325
20
20.067687
11
288.981780
21
20.067687
0
LINE
8
左侧通风孔
10
288.981780
20
20.067687
11
288.981780
21
36.270410
0
LINE
8
左侧通风孔
10
257.962830
20
36.270410
11
261.203375
21
36.270410
0
LINE
8
左侧通风孔
10
261.203375
20
36.270410
11
261.203375
21
20.067687
0
LINE
8
左侧通风孔
10
261.203375
20
20.067687
11
257.962830
21
20.067687
0
LINE
8
左侧通风孔
10
257.962830
20
20.067687
11
257.962830
21
36.270410
0
LINE
8
左侧通风孔
10
268.302490
20
36.270410
11
271.543035
21
36.270410
0
LINE
8
左侧通风孔
10
271.543035
20
36.270410
11
271.543035
21
20.067687
0
LINE
8
左侧通风孔
10
271.543035
20
20.067687
11
268.302490
21
20.067687
0
LINE
8
左侧通风孔
10
268.302490
20
20.067687
11
268.302490
21
36.270410
0
LINE
8
左侧通风孔
10
278.642120
20
36.270410
11
281.882665
21
36.270410
0
LINE
8
左侧通风孔
10
281.882665
20
36.270410
11
281.882665
21
20.067687
0
LINE
8
左侧通风孔
10
281.882665
20
20.067687
11
278.642120
21
20.067687
0
LINE
8
左侧通风孔
10
278.642120
20
20.067687
11
278.642120
21
36.270410
 0 
ENDSEC
 0 
EOF