999
"DXF R12 Output" (www.mydxf.blogspot.com)
 0 
SECTION
 2 
HEADER
 9 
$ACADVER
 1 
AC1009
 9 
$EXTMIN
 10 
 0 
 20 
 0 
 9 
$EXTMAX
 10 
 8.5 
 20 
 11 
 0 
ENDSEC
 0 
SECTION
 2 
ENTITIES
0
LINE
8
前面-C
10
0.000000
20
42.763000
11
0.000000
21
31.700000
0
LINE
8
前面-C
10
0.000000
20
31.700000
11
3.000000
21
31.700000
0
LINE
8
前面-C
10
3.000000
20
31.700000
11
3.000000
21
17.825000
0
LINE
8
前面-C
10
3.000000
20
17.825000
11
0.000000
21
17.825000
0
LINE
8
前面-C
10
0.000000
20
17.825000
11
0.000000
21
6.763000
0
LINE
8
前面-C
10
0.000000
20
6.763000
11
15.688000
21
6.763000
0
LINE
8
前面-C
10
15.688000
20
6.763000
11
15.688000
21
9.763000
0
LINE
8
前面-C
10
15.688000
20
9.763000
11
29.563000
21
9.763000
0
LINE
8
前面-C
10
29.563000
20
9.763000
11
29.563000
21
6.763000
0
LINE
8
前面-C
10
29.563000
20
6.763000
11
43.438000
21
6.763000
0
LINE
8
前面-C
10
43.438000
20
6.763000
11
43.438000
21
9.763000
0
LINE
8
前面-C
10
43.438000
20
9.763000
11
57.313000
21
9.763000
0
LINE
8
前面-C
10
57.313000
20
9.763000
11
57.313000
21
6.763000
0
LINE
8
前面-C
10
57.313000
20
6.763000
11
71.188000
21
6.763000
0
LINE
8
前面-C
10
71.188000
20
6.763000
11
71.188000
21
9.763000
0
LINE
8
前面-C
10
71.188000
20
9.763000
11
85.063000
21
9.763000
0
LINE
8
前面-C
10
85.063000
20
9.763000
11
85.063000
21
6.763000
0
LINE
8
前面-C
10
85.063000
20
6.763000
11
98.938000
21
6.763000
0
LINE
8
前面-C
10
98.938000
20
6.763000
11
98.938000
21
9.763000
0
LINE
8
前面-C
10
98.938000
20
9.763000
11
112.813000
21
9.763000
0
LINE
8
前面-C
10
112.813000
20
9.763000
11
112.813000
21
6.763000
0
LINE
8
前面-C
10
112.813000
20
6.763000
11
126.688000
21
6.763000
0
LINE
8
前面-C
10
126.688000
20
6.763000
11
126.688000
21
9.763000
0
LINE
8
前面-C
10
126.688000
20
9.763000
11
140.563000
21
9.763000
0
LINE
8
前面-C
10
140.563000
20
9.763000
11
140.563000
21
6.763000
0
LINE
8
前面-C
10
140.563000
20
6.763000
11
154.438000
21
6.763000
0
LINE
8
前面-C
10
154.438000
20
6.763000
11
154.438000
21
9.763000
0
LINE
8
前面-C
10
154.438000
20
9.763000
11
168.313000
21
9.763000
0
LINE
8
前面-C
10
168.313000
20
9.763000
11
168.313000
21
6.763000
0
LINE
8
前面-C
10
168.313000
20
6.763000
11
184.000000
21
6.763000
0
LINE
8
前面-C
10
184.000000
20
6.763000
11
184.000000
21
17.825000
0
LINE
8
前面-C
10
184.000000
20
17.825000
11
181.000000
21
17.825000
0
LINE
8
前面-C
10
181.000000
20
17.825000
11
181.000000
21
31.700000
0
LINE
8
前面-C
10
181.000000
20
31.700000
11
184.000000
21
31.700000
0
LINE
8
前面-C
10
184.000000
20
31.700000
11
184.000000
21
42.763000
0
LINE
8
前面-C
10
184.000000
20
42.763000
11
168.313000
21
42.763000
0
LINE
8
前面-C
10
168.313000
20
42.763000
11
168.313000
21
39.763000
0
LINE
8
前面-C
10
168.313000
20
39.763000
11
154.438000
21
39.763000
0
LINE
8
前面-C
10
154.438000
20
39.763000
11
154.438000
21
42.763000
0
LINE
8
前面-C
10
154.438000
20
42.763000
11
140.563000
21
42.763000
0
LINE
8
前面-C
10
140.563000
20
42.763000
11
140.563000
21
39.763000
0
LINE
8
前面-C
10
140.563000
20
39.763000
11
126.688000
21
39.763000
0
LINE
8
前面-C
10
126.688000
20
39.763000
11
126.688000
21
42.763000
0
LINE
8
前面-C
10
126.688000
20
42.763000
11
112.813000
21
42.763000
0
LINE
8
前面-C
10
112.813000
20
42.763000
11
112.813000
21
39.763000
0
LINE
8
前面-C
10
112.813000
20
39.763000
11
98.938000
21
39.763000
0
LINE
8
前面-C
10
98.938000
20
39.763000
11
98.938000
21
42.763000
0
LINE
8
前面-C
10
98.938000
20
42.763000
11
85.063000
21
42.763000
0
LINE
8
前面-C
10
85.063000
20
42.763000
11
85.063000
21
39.763000
0
LINE
8
前面-C
10
85.063000
20
39.763000
11
71.188000
21
39.763000
0
LINE
8
前面-C
10
71.188000
20
39.763000
11
71.188000
21
42.763000
0
LINE
8
前面-C
10
71.188000
20
42.763000
11
57.313000
21
42.763000
0
LINE
8
前面-C
10
57.313000
20
42.763000
11
57.313000
21
39.763000
0
LINE
8
前面-C
10
57.313000
20
39.763000
11
43.438000
21
39.763000
0
LINE
8
前面-C
10
43.438000
20
39.763000
11
43.438000
21
42.763000
0
LINE
8
前面-C
10
43.438000
20
42.763000
11
29.563000
21
42.763000
0
LINE
8
前面-C
10
29.563000
20
42.763000
11
29.563000
21
39.763000
0
LINE
8
前面-C
10
29.563000
20
39.763000
11
15.688000
21
39.763000
0
LINE
8
前面-C
10
15.688000
20
39.763000
11
15.688000
21
42.763000
0
LINE
8
前面-C
10
15.688000
20
42.763000
11
0.000000
21
42.763000
0
LINE
8
前面孔
10
9.940379
20
24.413160
11
9.148678
21
24.294609
0
LINE
8
前面孔
10
9.148678
20
24.294609
11
8.440339
21
23.958128
0
LINE
8
前面孔
10
8.440339
20
23.958128
11
7.858402
21
23.432474
0
LINE
8
前面孔
10
7.858402
20
23.432474
11
7.445904
21
22.746405
0
LINE
8
前面孔
10
7.445904
20
22.746405
11
7.252460
21
21.969601
0
LINE
8
前面孔
10
7.252460
20
21.969601
11
7.292259
21
21.186416
0
LINE
8
前面孔
10
7.292259
20
21.186416
11
7.555202
21
20.447617
0
LINE
8
前面孔
10
7.555202
20
20.447617
11
8.031191
21
19.803972
0
LINE
8
前面孔
10
8.031191
20
19.803972
11
8.674836
21
19.327983
0
LINE
8
前面孔
10
8.674836
20
19.327983
11
9.413635
21
19.065040
0
LINE
8
前面孔
10
9.413635
20
19.065040
11
10.196821
21
19.025241
0
LINE
8
前面孔
10
10.196821
20
19.025241
11
10.973624
21
19.218685
0
LINE
8
前面孔
10
10.973624
20
19.218685
11
11.659693
21
19.631183
0
LINE
8
前面孔
10
11.659693
20
19.631183
11
12.185347
21
20.213120
0
LINE
8
前面孔
10
12.185347
20
20.213120
11
12.521828
21
20.921459
0
LINE
8
前面孔
10
12.521828
20
20.921459
11
12.640379
21
21.713160
0
LINE
8
前面孔
10
12.640379
20
21.713160
11
12.428200
21
22.764122
0
LINE
8
前面孔
10
12.428200
20
22.764122
11
11.849567
21
23.622348
0
LINE
8
前面孔
10
11.849567
20
23.622348
11
10.991341
21
24.200981
0
LINE
8
前面孔
10
10.991341
20
24.200981
11
9.940379
21
24.413160
0
LINE
8
前面孔
10
9.940379
20
24.413160
11
9.940379
21
24.413160
0
LINE
8
前面孔
10
24.000380
20
24.413160
11
23.208679
21
24.294609
0
LINE
8
前面孔
10
23.208679
20
24.294609
11
22.500340
21
23.958128
0
LINE
8
前面孔
10
22.500340
20
23.958128
11
21.918403
21
23.432474
0
LINE
8
前面孔
10
21.918403
20
23.432474
11
21.505905
21
22.746405
0
LINE
8
前面孔
10
21.505905
20
22.746405
11
21.312461
21
21.969601
0
LINE
8
前面孔
10
21.312461
20
21.969601
11
21.352260
21
21.186416
0
LINE
8
前面孔
10
21.352260
20
21.186416
11
21.615203
21
20.447617
0
LINE
8
前面孔
10
21.615203
20
20.447617
11
22.091192
21
19.803972
0
LINE
8
前面孔
10
22.091192
20
19.803972
11
22.734837
21
19.327983
0
LINE
8
前面孔
10
22.734837
20
19.327983
11
23.473636
21
19.065040
0
LINE
8
前面孔
10
23.473636
20
19.065040
11
24.256821
21
19.025241
0
LINE
8
前面孔
10
24.256821
20
19.025241
11
25.033625
21
19.218685
0
LINE
8
前面孔
10
25.033625
20
19.218685
11
25.719694
21
19.631183
0
LINE
8
前面孔
10
25.719694
20
19.631183
11
26.245348
21
20.213120
0
LINE
8
前面孔
10
26.245348
20
20.213120
11
26.581829
21
20.921459
0
LINE
8
前面孔
10
26.581829
20
20.921459
11
26.700380
21
21.713160
0
LINE
8
前面孔
10
26.700380
20
21.713160
11
26.494855
21
22.746405
0
LINE
8
前面孔
10
26.494855
20
22.746405
11
25.909568
21
23.622348
0
LINE
8
前面孔
10
25.909568
20
23.622348
11
25.033625
21
24.207635
0
LINE
8
前面孔
10
25.033625
20
24.207635
11
24.000380
21
24.413160
0
LINE
8
前面孔
10
24.000380
20
24.413160
11
24.000380
21
24.413160
0
LINE
8
前面孔
10
33.000000
20
35.213000
11
47.500000
21
35.213000
0
LINE
8
前面孔
10
47.500000
20
35.213000
11
47.500000
21
19.213000
0
LINE
8
前面孔
10
47.500000
20
19.213000
11
33.000000
21
19.213000
0
LINE
8
前面孔
10
33.000000
20
19.213000
11
33.000000
21
35.213000
0
LINE
8
前面孔
10
89.300291
20
35.613250
11
93.300291
21
35.613250
0
LINE
8
前面孔
10
93.300291
20
35.613250
11
95.350291
21
33.113250
0
LINE
8
前面孔
10
95.350291
20
33.113250
11
95.350291
21
23.113250
0
LINE
8
前面孔
10
95.350291
20
23.113250
11
93.300291
21
20.613250
0
LINE
8
前面孔
10
93.300291
20
20.613250
11
89.300291
21
20.613250
0
LINE
8
前面孔
10
89.300291
20
20.613250
11
89.300291
21
35.613250
0
LINE
8
前面孔
10
124.500000
20
35.613250
11
128.500000
21
35.613250
0
LINE
8
前面孔
10
128.500000
20
35.613250
11
130.550000
21
33.113250
0
LINE
8
前面孔
10
130.550000
20
33.113250
11
130.550000
21
23.113250
0
LINE
8
前面孔
10
130.550000
20
23.113250
11
128.500000
21
20.613250
0
LINE
8
前面孔
10
128.500000
20
20.613250
11
124.500000
21
20.613250
0
LINE
8
前面孔
10
124.500000
20
20.613250
11
124.500000
21
35.613250
0
LINE
8
前面孔
10
103.499790
20
24.213000
11
116.499790
21
24.213000
0
LINE
8
前面孔
10
116.499790
20
24.213000
11
116.499790
21
17.213000
0
LINE
8
前面孔
10
116.499790
20
17.213000
11
103.499790
21
17.213000
0
LINE
8
前面孔
10
103.499790
20
17.213000
11
103.499790
21
24.213000
0
LINE
8
前面孔
10
69.363998
20
32.461000
11
81.563998
21
32.461000
0
LINE
8
前面孔
10
81.563998
20
32.461000
11
81.563998
21
19.261000
0
LINE
8
前面孔
10
81.563998
20
19.261000
11
69.363998
21
19.261000
0
LINE
8
前面孔
10
69.363998
20
19.261000
11
69.363998
21
32.461000
0
LINE
8
前面孔
10
52.098000
20
24.213000
11
65.098000
21
24.213000
0
LINE
8
前面孔
10
65.098000
20
24.213000
11
65.098000
21
17.213000
0
LINE
8
前面孔
10
65.098000
20
17.213000
11
52.098000
21
17.213000
0
LINE
8
前面孔
10
52.098000
20
17.213000
11
52.098000
21
24.213000
0
LINE
8
前面孔
10
136.000000
20
31.313000
11
153.299999
21
31.313000
0
LINE
8
前面孔
10
153.299999
20
31.313000
11
153.299999
21
19.313000
0
LINE
8
前面孔
10
153.299999
20
19.313000
11
136.000000
21
19.313000
0
LINE
8
前面孔
10
136.000000
20
19.313000
11
136.000000
21
31.313000
0
LINE
8
前面孔
10
157.800000
20
25.313010
11
156.855531
21
25.026508
0
LINE
8
前面孔
10
156.855531
20
25.026508
11
156.229405
21
24.263572
0
LINE
8
前面孔
10
156.229405
20
24.263572
11
156.132665
21
23.281356
0
LINE
8
前面孔
10
156.132665
20
23.281356
11
156.597918
21
22.410928
0
LINE
8
前面孔
10
156.597918
20
22.410928
11
157.468346
21
21.945675
0
LINE
8
前面孔
10
157.468346
20
21.945675
11
158.450562
21
22.042415
0
LINE
8
前面孔
10
158.450562
20
22.042415
11
159.213498
21
22.668541
0
LINE
8
前面孔
10
159.213498
20
22.668541
11
159.500000
21
23.613010
0
LINE
8
前面孔
10
159.500000
20
23.613010
11
159.370595
21
24.263572
0
LINE
8
前面孔
10
159.370595
20
24.263572
11
159.002082
21
24.815092
0
LINE
8
前面孔
10
159.002082
20
24.815092
11
158.450562
21
25.183605
0
LINE
8
前面孔
10
158.450562
20
25.183605
11
157.800000
21
25.313010
0
LINE
8
前面孔
10
157.800000
20
25.313010
11
157.800000
21
25.313010
0
LINE
8
前面孔
10
174.899990
20
25.263000
11
173.955521
21
24.976498
0
LINE
8
前面孔
10
173.955521
20
24.976498
11
173.329395
21
24.213562
0
LINE
8
前面孔
10
173.329395
20
24.213562
11
173.232655
21
23.231346
0
LINE
8
前面孔
10
173.232655
20
23.231346
11
173.697908
21
22.360918
0
LINE
8
前面孔
10
173.697908
20
22.360918
11
174.568336
21
21.895665
0
LINE
8
前面孔
10
174.568336
20
21.895665
11
175.550552
21
21.992405
0
LINE
8
前面孔
10
175.550552
20
21.992405
11
176.313488
21
22.618531
0
LINE
8
前面孔
10
176.313488
20
22.618531
11
176.599990
21
23.563000
0
LINE
8
前面孔
10
176.599990
20
23.563000
11
176.466396
21
24.224717
0
LINE
8
前面孔
10
176.466396
20
24.224717
11
176.102072
21
24.765082
0
LINE
8
前面孔
10
176.102072
20
24.765082
11
175.561707
21
25.129406
0
LINE
8
前面孔
10
175.561707
20
25.129406
11
174.899990
21
25.263000
0
LINE
8
前面孔
10
174.899990
20
25.263000
11
174.899990
21
25.263000
0
LINE
8
前面孔
10
165.350010
20
27.612990
11
164.544433
21
27.368621
0
LINE
8
前面孔
10
164.544433
20
27.368621
11
164.010385
21
26.717881
0
LINE
8
前面孔
10
164.010385
20
26.717881
11
163.927871
21
25.880109
0
LINE
8
前面孔
10
163.927871
20
25.880109
11
164.324705
21
25.137685
0
LINE
8
前面孔
10
164.324705
20
25.137685
11
165.067129
21
24.740851
0
LINE
8
前面孔
10
165.067129
20
24.740851
11
165.904901
21
24.823365
0
LINE
8
前面孔
10
165.904901
20
24.823365
11
166.555641
21
25.357413
0
LINE
8
前面孔
10
166.555641
20
25.357413
11
166.800010
21
26.162990
0
LINE
8
前面孔
10
166.800010
20
26.162990
11
166.689635
21
26.717881
0
LINE
8
前面孔
10
166.689635
20
26.717881
11
166.375315
21
27.188295
0
LINE
8
前面孔
10
166.375315
20
27.188295
11
165.904901
21
27.502615
0
LINE
8
前面孔
10
165.904901
20
27.502615
11
165.350010
21
27.612990
0
LINE
8
前面孔
10
165.350010
20
27.612990
11
165.350010
21
27.612990
0
LINE
8
前面孔
10
165.350010
20
22.613010
11
164.544433
21
22.368641
0
LINE
8
前面孔
10
164.544433
20
22.368641
11
164.010385
21
21.717901
0
LINE
8
前面孔
10
164.010385
20
21.717901
11
163.927871
21
20.880129
0
LINE
8
前面孔
10
163.927871
20
20.880129
11
164.324705
21
20.137705
0
LINE
8
前面孔
10
164.324705
20
20.137705
11
165.067129
21
19.740871
0
LINE
8
前面孔
10
165.067129
20
19.740871
11
165.904901
21
19.823385
0
LINE
8
前面孔
10
165.904901
20
19.823385
11
166.555641
21
20.357433
0
LINE
8
前面孔
10
166.555641
20
20.357433
11
166.800010
21
21.163010
0
LINE
8
前面孔
10
166.800010
20
21.163010
11
166.689635
21
21.717901
0
LINE
8
前面孔
10
166.689635
20
21.717901
11
166.375315
21
22.188315
0
LINE
8
前面孔
10
166.375315
20
22.188315
11
165.904901
21
22.502635
0
LINE
8
前面孔
10
165.904901
20
22.502635
11
165.350010
21
22.613010
0
LINE
8
前面孔
10
165.350010
20
22.613010
11
165.350010
21
22.613010
0
LINE
8
Layer 1
10
316.000000
20
120.000000
11
316.000000
21
110.062000
0
LINE
8
Layer 1
10
316.000000
20
110.062000
11
313.000000
21
110.062000
0
LINE
8
Layer 1
10
313.000000
20
110.062000
11
313.000000
21
96.187000
0
LINE
8
Layer 1
10
313.000000
20
96.187000
11
316.000000
21
96.187000
0
LINE
8
Layer 1
10
316.000000
20
96.187000
11
316.000000
21
82.312000
0
LINE
8
Layer 1
10
316.000000
20
82.312000
11
313.000000
21
82.312000
0
LINE
8
Layer 1
10
313.000000
20
82.312000
11
313.000000
21
68.437000
0
LINE
8
Layer 1
10
313.000000
20
68.437000
11
316.000000
21
68.437000
0
LINE
8
Layer 1
10
316.000000
20
68.437000
11
316.000000
21
54.562000
0
LINE
8
Layer 1
10
316.000000
20
54.562000
11
313.000000
21
54.562000
0
LINE
8
Layer 1
10
313.000000
20
54.562000
11
313.000000
21
40.687000
0
LINE
8
Layer 1
10
313.000000
20
40.687000
11
316.000000
21
40.687000
0
LINE
8
Layer 1
10
316.000000
20
40.687000
11
316.000000
21
26.812000
0
LINE
8
Layer 1
10
316.000000
20
26.812000
11
313.000000
21
26.812000
0
LINE
8
Layer 1
10
313.000000
20
26.812000
11
313.000000
21
12.937000
0
LINE
8
Layer 1
10
313.000000
20
12.937000
11
316.000000
21
12.937000
0
LINE
8
Layer 1
10
316.000000
20
12.937000
11
316.000000
21
3.000000
0
LINE
8
Layer 1
10
316.000000
20
3.000000
11
328.688000
21
3.000000
0
LINE
8
Layer 1
10
328.688000
20
3.000000
11
328.688000
21
0.000000
0
LINE
8
Layer 1
10
328.688000
20
0.000000
11
342.563000
21
0.000000
0
LINE
8
Layer 1
10
342.563000
20
0.000000
11
342.563000
21
3.000000
0
LINE
8
Layer 1
10
342.563000
20
3.000000
11
356.438000
21
3.000000
0
LINE
8
Layer 1
10
356.438000
20
3.000000
11
356.438000
21
0.000000
0
LINE
8
Layer 1
10
356.438000
20
0.000000
11
370.313000
21
0.000000
0
LINE
8
Layer 1
10
370.313000
20
0.000000
11
370.313000
21
3.000000
0
LINE
8
Layer 1
10
370.313000
20
3.000000
11
384.188000
21
3.000000
0
LINE
8
Layer 1
10
384.188000
20
3.000000
11
384.188000
21
0.000000
0
LINE
8
Layer 1
10
384.188000
20
0.000000
11
398.063000
21
0.000000
0
LINE
8
Layer 1
10
398.063000
20
0.000000
11
398.063000
21
3.000000
0
LINE
8
Layer 1
10
398.063000
20
3.000000
11
411.938000
21
3.000000
0
LINE
8
Layer 1
10
411.938000
20
3.000000
11
411.938000
21
0.000000
0
LINE
8
Layer 1
10
411.938000
20
0.000000
11
425.813000
21
0.000000
0
LINE
8
Layer 1
10
425.813000
20
0.000000
11
425.813000
21
3.000000
0
LINE
8
Layer 1
10
425.813000
20
3.000000
11
439.688000
21
3.000000
0
LINE
8
Layer 1
10
439.688000
20
3.000000
11
439.688000
21
0.000000
0
LINE
8
Layer 1
10
439.688000
20
0.000000
11
453.563000
21
0.000000
0
LINE
8
Layer 1
10
453.563000
20
0.000000
11
453.563000
21
3.000000
0
LINE
8
Layer 1
10
453.563000
20
3.000000
11
467.438000
21
3.000000
0
LINE
8
Layer 1
10
467.438000
20
3.000000
11
467.438000
21
0.000000
0
LINE
8
Layer 1
10
467.438000
20
0.000000
11
481.313000
21
0.000000
0
LINE
8
Layer 1
10
481.313000
20
0.000000
11
481.313000
21
3.000000
0
LINE
8
Layer 1
10
481.313000
20
3.000000
11
494.000000
21
3.000000
0
LINE
8
Layer 1
10
494.000000
20
3.000000
11
494.000000
21
12.937000
0
LINE
8
Layer 1
10
494.000000
20
12.937000
11
497.000000
21
12.937000
0
LINE
8
Layer 1
10
497.000000
20
12.937000
11
497.000000
21
26.812000
0
LINE
8
Layer 1
10
497.000000
20
26.812000
11
494.000000
21
26.812000
0
LINE
8
Layer 1
10
494.000000
20
26.812000
11
494.000000
21
40.687000
0
LINE
8
Layer 1
10
494.000000
20
40.687000
11
497.000000
21
40.687000
0
LINE
8
Layer 1
10
497.000000
20
40.687000
11
497.000000
21
54.562000
0
LINE
8
Layer 1
10
497.000000
20
54.562000
11
494.000000
21
54.562000
0
LINE
8
Layer 1
10
494.000000
20
54.562000
11
494.000000
21
68.437000
0
LINE
8
Layer 1
10
494.000000
20
68.437000
11
497.000000
21
68.437000
0
LINE
8
Layer 1
10
497.000000
20
68.437000
11
497.000000
21
82.312000
0
LINE
8
Layer 1
10
497.000000
20
82.312000
11
494.000000
21
82.312000
0
LINE
8
Layer 1
10
494.000000
20
82.312000
11
494.000000
21
96.187000
0
LINE
8
Layer 1
10
494.000000
20
96.187000
11
497.000000
21
96.187000
0
LINE
8
Layer 1
10
497.000000
20
96.187000
11
497.000000
21
110.062000
0
LINE
8
Layer 1
10
497.000000
20
110.062000
11
494.000000
21
110.062000
0
LINE
8
Layer 1
10
494.000000
20
110.062000
11
494.000000
21
120.000000
0
LINE
8
Layer 1
10
494.000000
20
120.000000
11
481.313000
21
120.000000
0
LINE
8
Layer 1
10
481.313000
20
120.000000
11
481.313000
21
123.000000
0
LINE
8
Layer 1
10
481.313000
20
123.000000
11
467.438000
21
123.000000
0
LINE
8
Layer 1
10
467.438000
20
123.000000
11
467.438000
21
120.000000
0
LINE
8
Layer 1
10
467.438000
20
120.000000
11
453.563000
21
120.000000
0
LINE
8
Layer 1
10
453.563000
20
120.000000
11
453.563000
21
123.000000
0
LINE
8
Layer 1
10
453.563000
20
123.000000
11
439.688000
21
123.000000
0
LINE
8
Layer 1
10
439.688000
20
123.000000
11
439.688000
21
120.000000
0
LINE
8
Layer 1
10
439.688000
20
120.000000
11
425.813000
21
120.000000
0
LINE
8
Layer 1
10
425.813000
20
120.000000
11
425.813000
21
123.000000
0
LINE
8
Layer 1
10
425.813000
20
123.000000
11
411.938000
21
123.000000
0
LINE
8
Layer 1
10
411.938000
20
123.000000
11
411.938000
21
120.000000
0
LINE
8
Layer 1
10
411.938000
20
120.000000
11
398.063000
21
120.000000
0
LINE
8
Layer 1
10
398.063000
20
120.000000
11
398.063000
21
123.000000
0
LINE
8
Layer 1
10
398.063000
20
123.000000
11
384.188000
21
123.000000
0
LINE
8
Layer 1
10
384.188000
20
123.000000
11
384.188000
21
120.000000
0
LINE
8
Layer 1
10
384.188000
20
120.000000
11
370.313000
21
120.000000
0
LINE
8
Layer 1
10
370.313000
20
120.000000
11
370.313000
21
123.000000
0
LINE
8
Layer 1
10
370.313000
20
123.000000
11
356.438000
21
123.000000
0
LINE
8
Layer 1
10
356.438000
20
123.000000
11
356.438000
21
120.000000
0
LINE
8
Layer 1
10
356.438000
20
120.000000
11
342.563000
21
120.000000
0
LINE
8
Layer 1
10
342.563000
20
120.000000
11
342.563000
21
123.000000
0
LINE
8
Layer 1
10
342.563000
20
123.000000
11
328.688000
21
123.000000
0
LINE
8
Layer 1
10
328.688000
20
123.000000
11
328.688000
21
120.000000
0
LINE
8
Layer 1
10
328.688000
20
120.000000
11
316.000000
21
120.000000
0
LINE
8
后面-c
10
0.000000
20
80.295000
11
0.000000
21
69.232000
0
LINE
8
后面-c
10
0.000000
20
69.232000
11
3.000000
21
69.232000
0
LINE
8
后面-c
10
3.000000
20
69.232000
11
3.000000
21
55.357000
0
LINE
8
后面-c
10
3.000000
20
55.357000
11
0.000000
21
55.357000
0
LINE
8
后面-c
10
0.000000
20
55.357000
11
0.000000
21
44.295000
0
LINE
8
后面-c
10
0.000000
20
44.295000
11
15.688000
21
44.295000
0
LINE
8
后面-c
10
15.688000
20
44.295000
11
15.688000
21
47.295000
0
LINE
8
后面-c
10
15.688000
20
47.295000
11
29.563000
21
47.295000
0
LINE
8
后面-c
10
29.563000
20
47.295000
11
29.563000
21
44.295000
0
LINE
8
后面-c
10
29.563000
20
44.295000
11
43.438000
21
44.295000
0
LINE
8
后面-c
10
43.438000
20
44.295000
11
43.438000
21
47.295000
0
LINE
8
后面-c
10
43.438000
20
47.295000
11
57.313000
21
47.295000
0
LINE
8
后面-c
10
57.313000
20
47.295000
11
57.313000
21
44.295000
0
LINE
8
后面-c
10
57.313000
20
44.295000
11
71.188000
21
44.295000
0
LINE
8
后面-c
10
71.188000
20
44.295000
11
71.188000
21
47.295000
0
LINE
8
后面-c
10
71.188000
20
47.295000
11
85.063000
21
47.295000
0
LINE
8
后面-c
10
85.063000
20
47.295000
11
85.063000
21
44.295000
0
LINE
8
后面-c
10
85.063000
20
44.295000
11
98.938000
21
44.295000
0
LINE
8
后面-c
10
98.938000
20
44.295000
11
98.938000
21
47.295000
0
LINE
8
后面-c
10
98.938000
20
47.295000
11
112.813000
21
47.295000
0
LINE
8
后面-c
10
112.813000
20
47.295000
11
112.813000
21
44.295000
0
LINE
8
后面-c
10
112.813000
20
44.295000
11
126.688000
21
44.295000
0
LINE
8
后面-c
10
126.688000
20
44.295000
11
126.688000
21
47.295000
0
LINE
8
后面-c
10
126.688000
20
47.295000
11
140.563000
21
47.295000
0
LINE
8
后面-c
10
140.563000
20
47.295000
11
140.563000
21
44.295000
0
LINE
8
后面-c
10
140.563000
20
44.295000
11
154.438000
21
44.295000
0
LINE
8
后面-c
10
154.438000
20
44.295000
11
154.438000
21
47.295000
0
LINE
8
后面-c
10
154.438000
20
47.295000
11
168.313000
21
47.295000
0
LINE
8
后面-c
10
168.313000
20
47.295000
11
168.313000
21
44.295000
0
LINE
8
后面-c
10
168.313000
20
44.295000
11
184.000000
21
44.295000
0
LINE
8
后面-c
10
184.000000
20
44.295000
11
184.000000
21
55.357000
0
LINE
8
后面-c
10
184.000000
20
55.357000
11
181.000000
21
55.357000
0
LINE
8
后面-c
10
181.000000
20
55.357000
11
181.000000
21
69.232000
0
LINE
8
后面-c
10
181.000000
20
69.232000
11
184.000000
21
69.232000
0
LINE
8
后面-c
10
184.000000
20
69.232000
11
184.000000
21
80.295000
0
LINE
8
后面-c
10
184.000000
20
80.295000
11
168.313000
21
80.295000
0
LINE
8
后面-c
10
168.313000
20
80.295000
11
168.313000
21
77.295000
0
LINE
8
后面-c
10
168.313000
20
77.295000
11
154.438000
21
77.295000
0
LINE
8
后面-c
10
154.438000
20
77.295000
11
154.438000
21
80.295000
0
LINE
8
后面-c
10
154.438000
20
80.295000
11
140.563000
21
80.295000
0
LINE
8
后面-c
10
140.563000
20
80.295000
11
140.563000
21
77.295000
0
LINE
8
后面-c
10
140.563000
20
77.295000
11
126.688000
21
77.295000
0
LINE
8
后面-c
10
126.688000
20
77.295000
11
126.688000
21
80.295000
0
LINE
8
后面-c
10
126.688000
20
80.295000
11
112.813000
21
80.295000
0
LINE
8
后面-c
10
112.813000
20
80.295000
11
112.813000
21
77.295000
0
LINE
8
后面-c
10
112.813000
20
77.295000
11
98.938000
21
77.295000
0
LINE
8
后面-c
10
98.938000
20
77.295000
11
98.938000
21
80.295000
0
LINE
8
后面-c
10
98.938000
20
80.295000
11
85.063000
21
80.295000
0
LINE
8
后面-c
10
85.063000
20
80.295000
11
85.063000
21
77.295000
0
LINE
8
后面-c
10
85.063000
20
77.295000
11
71.188000
21
77.295000
0
LINE
8
后面-c
10
71.188000
20
77.295000
11
71.188000
21
80.295000
0
LINE
8
后面-c
10
71.188000
20
80.295000
11
57.313000
21
80.295000
0
LINE
8
后面-c
10
57.313000
20
80.295000
11
57.313000
21
77.295000
0
LINE
8
后面-c
10
57.313000
20
77.295000
11
43.438000
21
77.295000
0
LINE
8
后面-c
10
43.438000
20
77.295000
11
43.438000
21
80.295000
0
LINE
8
后面-c
10
43.438000
20
80.295000
11
29.563000
21
80.295000
0
LINE
8
后面-c
10
29.563000
20
80.295000
11
29.563000
21
77.295000
0
LINE
8
后面-c
10
29.563000
20
77.295000
11
15.688000
21
77.295000
0
LINE
8
后面-c
10
15.688000
20
77.295000
11
15.688000
21
80.295000
0
LINE
8
后面-c
10
15.688000
20
80.295000
11
0.000000
21
80.295000
0
LINE
8
后面板孔
10
152.000000
20
59.319990
11
165.100000
21
59.319990
0
LINE
8
后面板孔
10
165.100000
20
59.319990
11
165.100000
21
57.119990
0
LINE
8
后面板孔
10
165.100000
20
57.119990
11
152.000000
21
57.119990
0
LINE
8
后面板孔
10
152.000000
20
57.119990
11
152.000000
21
59.319990
0
LINE
8
后面板孔
10
16.205729
20
69.710110
11
15.150128
21
69.552042
0
LINE
8
后面板孔
10
15.150128
20
69.552042
11
14.205676
21
69.103401
0
LINE
8
后面板孔
10
14.205676
20
69.103401
11
13.429760
21
68.402529
0
LINE
8
后面板孔
10
13.429760
20
68.402529
11
12.879763
21
67.487770
0
LINE
8
后面板孔
10
12.879763
20
67.487770
11
12.621837
21
66.452032
0
LINE
8
后面板孔
10
12.621837
20
66.452032
11
12.674902
21
65.407785
0
LINE
8
后面板孔
10
12.674902
20
65.407785
11
13.025493
21
64.422719
0
LINE
8
后面板孔
10
13.025493
20
64.422719
11
13.660145
21
63.564526
0
LINE
8
后面板孔
10
13.660145
20
63.564526
11
14.518338
21
62.929874
0
LINE
8
后面板孔
10
14.518338
20
62.929874
11
15.503404
21
62.579283
0
LINE
8
后面板孔
10
15.503404
20
62.579283
11
16.547651
21
62.526218
0
LINE
8
后面板孔
10
16.547651
20
62.526218
11
17.583389
21
62.784144
0
LINE
8
后面板孔
10
17.583389
20
62.784144
11
18.498148
21
63.334141
0
LINE
8
后面板孔
10
18.498148
20
63.334141
11
19.199020
21
64.110057
0
LINE
8
后面板孔
10
19.199020
20
64.110057
11
19.647661
21
65.054509
0
LINE
8
后面板孔
10
19.647661
20
65.054509
11
19.805729
21
66.110110
0
LINE
8
后面板孔
10
19.805729
20
66.110110
11
19.531695
21
67.487770
0
LINE
8
后面板孔
10
19.531695
20
67.487770
11
18.751313
21
68.655694
0
LINE
8
后面板孔
10
18.751313
20
68.655694
11
17.583389
21
69.436076
0
LINE
8
后面板孔
10
17.583389
20
69.436076
11
16.205729
21
69.710110
0
LINE
8
后面板孔
10
16.205729
20
69.710110
11
16.205729
21
69.710110
0
LINE
8
后面板孔
10
128.060000
20
67.295000
11
138.060000
21
67.295000
0
LINE
8
后面板孔
10
138.060000
20
67.295000
11
138.060000
21
57.295000
0
LINE
8
后面板孔
10
138.060000
20
57.295000
11
128.060000
21
57.295000
0
LINE
8
后面板孔
10
128.060000
20
57.295000
11
128.060000
21
67.295000
0
LINE
8
后面板孔
10
59.650002
20
66.115010
11
124.150002
21
66.115010
0
LINE
8
后面板孔
10
124.150002
20
66.115010
11
124.150002
21
56.615010
0
LINE
8
后面板孔
10
124.150002
20
56.615010
11
59.650002
21
56.615010
0
LINE
8
后面板孔
10
59.650002
20
56.615010
11
59.650002
21
66.115010
0
LINE
8
Layer 1
10
316.000000
20
246.000000
11
316.000000
21
236.062000
0
LINE
8
Layer 1
10
316.000000
20
236.062000
11
313.000000
21
236.062000
0
LINE
8
Layer 1
10
313.000000
20
236.062000
11
313.000000
21
222.187000
0
LINE
8
Layer 1
10
313.000000
20
222.187000
11
316.000000
21
222.187000
0
LINE
8
Layer 1
10
316.000000
20
222.187000
11
316.000000
21
208.312000
0
LINE
8
Layer 1
10
316.000000
20
208.312000
11
313.000000
21
208.312000
0
LINE
8
Layer 1
10
313.000000
20
208.312000
11
313.000000
21
194.437000
0
LINE
8
Layer 1
10
313.000000
20
194.437000
11
316.000000
21
194.437000
0
LINE
8
Layer 1
10
316.000000
20
194.437000
11
316.000000
21
180.562000
0
LINE
8
Layer 1
10
316.000000
20
180.562000
11
313.000000
21
180.562000
0
LINE
8
Layer 1
10
313.000000
20
180.562000
11
313.000000
21
166.687000
0
LINE
8
Layer 1
10
313.000000
20
166.687000
11
316.000000
21
166.687000
0
LINE
8
Layer 1
10
316.000000
20
166.687000
11
316.000000
21
152.812000
0
LINE
8
Layer 1
10
316.000000
20
152.812000
11
313.000000
21
152.812000
0
LINE
8
Layer 1
10
313.000000
20
152.812000
11
313.000000
21
138.937000
0
LINE
8
Layer 1
10
313.000000
20
138.937000
11
316.000000
21
138.937000
0
LINE
8
Layer 1
10
316.000000
20
138.937000
11
316.000000
21
129.000000
0
LINE
8
Layer 1
10
316.000000
20
129.000000
11
328.688000
21
129.000000
0
LINE
8
Layer 1
10
328.688000
20
129.000000
11
328.688000
21
126.000000
0
LINE
8
Layer 1
10
328.688000
20
126.000000
11
342.563000
21
126.000000
0
LINE
8
Layer 1
10
342.563000
20
126.000000
11
342.563000
21
129.000000
0
LINE
8
Layer 1
10
342.563000
20
129.000000
11
356.438000
21
129.000000
0
LINE
8
Layer 1
10
356.438000
20
129.000000
11
356.438000
21
126.000000
0
LINE
8
Layer 1
10
356.438000
20
126.000000
11
370.313000
21
126.000000
0
LINE
8
Layer 1
10
370.313000
20
126.000000
11
370.313000
21
129.000000
0
LINE
8
Layer 1
10
370.313000
20
129.000000
11
384.188000
21
129.000000
0
LINE
8
Layer 1
10
384.188000
20
129.000000
11
384.188000
21
126.000000
0
LINE
8
Layer 1
10
384.188000
20
126.000000
11
398.063000
21
126.000000
0
LINE
8
Layer 1
10
398.063000
20
126.000000
11
398.063000
21
129.000000
0
LINE
8
Layer 1
10
398.063000
20
129.000000
11
411.938000
21
129.000000
0
LINE
8
Layer 1
10
411.938000
20
129.000000
11
411.938000
21
126.000000
0
LINE
8
Layer 1
10
411.938000
20
126.000000
11
425.813000
21
126.000000
0
LINE
8
Layer 1
10
425.813000
20
126.000000
11
425.813000
21
129.000000
0
LINE
8
Layer 1
10
425.813000
20
129.000000
11
439.688000
21
129.000000
0
LINE
8
Layer 1
10
439.688000
20
129.000000
11
439.688000
21
126.000000
0
LINE
8
Layer 1
10
439.688000
20
126.000000
11
453.563000
21
126.000000
0
LINE
8
Layer 1
10
453.563000
20
126.000000
11
453.563000
21
129.000000
0
LINE
8
Layer 1
10
453.563000
20
129.000000
11
467.438000
21
129.000000
0
LINE
8
Layer 1
10
467.438000
20
129.000000
11
467.438000
21
126.000000
0
LINE
8
Layer 1
10
467.438000
20
126.000000
11
481.313000
21
126.000000
0
LINE
8
Layer 1
10
481.313000
20
126.000000
11
481.313000
21
129.000000
0
LINE
8
Layer 1
10
481.313000
20
129.000000
11
494.000000
21
129.000000
0
LINE
8
Layer 1
10
494.000000
20
129.000000
11
494.000000
21
138.937000
0
LINE
8
Layer 1
10
494.000000
20
138.937000
11
497.000000
21
138.937000
0
LINE
8
Layer 1
10
497.000000
20
138.937000
11
497.000000
21
152.812000
0
LINE
8
Layer 1
10
497.000000
20
152.812000
11
494.000000
21
152.812000
0
LINE
8
Layer 1
10
494.000000
20
152.812000
11
494.000000
21
166.687000
0
LINE
8
Layer 1
10
494.000000
20
166.687000
11
497.000000
21
166.687000
0
LINE
8
Layer 1
10
497.000000
20
166.687000
11
497.000000
21
180.562000
0
LINE
8
Layer 1
10
497.000000
20
180.562000
11
494.000000
21
180.562000
0
LINE
8
Layer 1
10
494.000000
20
180.562000
11
494.000000
21
194.437000
0
LINE
8
Layer 1
10
494.000000
20
194.437000
11
497.000000
21
194.437000
0
LINE
8
Layer 1
10
497.000000
20
194.437000
11
497.000000
21
208.312000
0
LINE
8
Layer 1
10
497.000000
20
208.312000
11
494.000000
21
208.312000
0
LINE
8
Layer 1
10
494.000000
20
208.312000
11
494.000000
21
222.187000
0
LINE
8
Layer 1
10
494.000000
20
222.187000
11
497.000000
21
222.187000
0
LINE
8
Layer 1
10
497.000000
20
222.187000
11
497.000000
21
236.062000
0
LINE
8
Layer 1
10
497.000000
20
236.062000
11
494.000000
21
236.062000
0
LINE
8
Layer 1
10
494.000000
20
236.062000
11
494.000000
21
246.000000
0
LINE
8
Layer 1
10
494.000000
20
246.000000
11
481.313000
21
246.000000
0
LINE
8
Layer 1
10
481.313000
20
246.000000
11
481.313000
21
249.000000
0
LINE
8
Layer 1
10
481.313000
20
249.000000
11
467.438000
21
249.000000
0
LINE
8
Layer 1
10
467.438000
20
249.000000
11
467.438000
21
246.000000
0
LINE
8
Layer 1
10
467.438000
20
246.000000
11
453.563000
21
246.000000
0
LINE
8
Layer 1
10
453.563000
20
246.000000
11
453.563000
21
249.000000
0
LINE
8
Layer 1
10
453.563000
20
249.000000
11
439.688000
21
249.000000
0
LINE
8
Layer 1
10
439.688000
20
249.000000
11
439.688000
21
246.000000
0
LINE
8
Layer 1
10
439.688000
20
246.000000
11
425.813000
21
246.000000
0
LINE
8
Layer 1
10
425.813000
20
246.000000
11
425.813000
21
249.000000
0
LINE
8
Layer 1
10
425.813000
20
249.000000
11
411.938000
21
249.000000
0
LINE
8
Layer 1
10
411.938000
20
249.000000
11
411.938000
21
246.000000
0
LINE
8
Layer 1
10
411.938000
20
246.000000
11
398.063000
21
246.000000
0
LINE
8
Layer 1
10
398.063000
20
246.000000
11
398.063000
21
249.000000
0
LINE
8
Layer 1
10
398.063000
20
249.000000
11
384.188000
21
249.000000
0
LINE
8
Layer 1
10
384.188000
20
249.000000
11
384.188000
21
246.000000
0
LINE
8
Layer 1
10
384.188000
20
246.000000
11
370.313000
21
246.000000
0
LINE
8
Layer 1
10
370.313000
20
246.000000
11
370.313000
21
249.000000
0
LINE
8
Layer 1
10
370.313000
20
249.000000
11
356.438000
21
249.000000
0
LINE
8
Layer 1
10
356.438000
20
249.000000
11
356.438000
21
246.000000
0
LINE
8
Layer 1
10
356.438000
20
246.000000
11
342.563000
21
246.000000
0
LINE
8
Layer 1
10
342.563000
20
246.000000
11
342.563000
21
249.000000
0
LINE
8
Layer 1
10
342.563000
20
249.000000
11
328.688000
21
249.000000
0
LINE
8
Layer 1
10
328.688000
20
249.000000
11
328.688000
21
246.000000
0
LINE
8
Layer 1
10
328.688000
20
246.000000
11
316.000000
21
246.000000
0
LINE
8
Layer 1
10
316.000000
20
246.000000
11
316.000000
21
246.000000
0
LINE
8
底板孔
10
324.834990
20
227.000000
11
323.946078
21
226.730351
0
LINE
8
底板孔
10
323.946078
20
226.730351
11
323.356783
21
226.012293
0
LINE
8
底板孔
10
323.356783
20
226.012293
11
323.265734
21
225.087855
0
LINE
8
底板孔
10
323.265734
20
225.087855
11
323.703619
21
224.268629
0
LINE
8
底板孔
10
323.703619
20
224.268629
11
324.522845
21
223.830744
0
LINE
8
底板孔
10
324.522845
20
223.830744
11
325.447283
21
223.921793
0
LINE
8
底板孔
10
325.447283
20
223.921793
11
326.165341
21
224.511088
0
LINE
8
底板孔
10
326.165341
20
224.511088
11
326.434990
21
225.400000
0
LINE
8
底板孔
10
326.434990
20
225.400000
11
326.313197
21
226.012293
0
LINE
8
底板孔
10
326.313197
20
226.012293
11
325.966361
21
226.531371
0
LINE
8
底板孔
10
325.966361
20
226.531371
11
325.447283
21
226.878207
0
LINE
8
底板孔
10
325.447283
20
226.878207
11
324.834990
21
227.000000
0
LINE
8
底板孔
10
324.834990
20
227.000000
11
324.834990
21
227.000000
0
LINE
8
底板孔
10
486.049990
20
233.399999
11
485.161078
21
233.130350
0
LINE
8
底板孔
10
485.161078
20
233.130350
11
484.571783
21
232.412292
0
LINE
8
底板孔
10
484.571783
20
232.412292
11
484.480734
21
231.487854
0
LINE
8
底板孔
10
484.480734
20
231.487854
11
484.918619
21
230.668628
0
LINE
8
底板孔
10
484.918619
20
230.668628
11
485.737845
21
230.230743
0
LINE
8
底板孔
10
485.737845
20
230.230743
11
486.662283
21
230.321792
0
LINE
8
底板孔
10
486.662283
20
230.321792
11
487.380341
21
230.911087
0
LINE
8
底板孔
10
487.380341
20
230.911087
11
487.649990
21
231.799999
0
LINE
8
底板孔
10
487.649990
20
231.799999
11
487.528197
21
232.412292
0
LINE
8
底板孔
10
487.528197
20
232.412292
11
487.181361
21
232.931370
0
LINE
8
底板孔
10
487.181361
20
232.931370
11
486.662283
21
233.278206
0
LINE
8
底板孔
10
486.662283
20
233.278206
11
486.049990
21
233.399999
0
LINE
8
底板孔
10
486.049990
20
233.399999
11
486.049990
21
233.399999
0
LINE
8
底板孔
10
486.049990
20
139.000000
11
485.161078
21
138.730351
0
LINE
8
底板孔
10
485.161078
20
138.730351
11
484.571783
21
138.012293
0
LINE
8
底板孔
10
484.571783
20
138.012293
11
484.480734
21
137.087855
0
LINE
8
底板孔
10
484.480734
20
137.087855
11
484.918619
21
136.268629
0
LINE
8
底板孔
10
484.918619
20
136.268629
11
485.737845
21
135.830744
0
LINE
8
底板孔
10
485.737845
20
135.830744
11
486.662283
21
135.921793
0
LINE
8
底板孔
10
486.662283
20
135.921793
11
487.380341
21
136.511088
0
LINE
8
底板孔
10
487.380341
20
136.511088
11
487.649990
21
137.400000
0
LINE
8
底板孔
10
487.649990
20
137.400000
11
487.528197
21
138.012293
0
LINE
8
底板孔
10
487.528197
20
138.012293
11
487.181361
21
138.531371
0
LINE
8
底板孔
10
487.181361
20
138.531371
11
486.662283
21
138.878207
0
LINE
8
底板孔
10
486.662283
20
138.878207
11
486.049990
21
139.000000
0
LINE
8
底板孔
10
486.049990
20
139.000000
11
486.049990
21
139.000000
0
LINE
8
底板孔
10
366.600010
20
138.000000
11
365.711098
21
137.730351
0
LINE
8
底板孔
10
365.711098
20
137.730351
11
365.121803
21
137.012293
0
LINE
8
底板孔
10
365.121803
20
137.012293
11
365.030754
21
136.087855
0
LINE
8
底板孔
10
365.030754
20
136.087855
11
365.468639
21
135.268629
0
LINE
8
底板孔
10
365.468639
20
135.268629
11
366.287865
21
134.830744
0
LINE
8
底板孔
10
366.287865
20
134.830744
11
367.212303
21
134.921793
0
LINE
8
底板孔
10
367.212303
20
134.921793
11
367.930361
21
135.511088
0
LINE
8
底板孔
10
367.930361
20
135.511088
11
368.200010
21
136.400000
0
LINE
8
底板孔
10
368.200010
20
136.400000
11
368.078217
21
137.012293
0
LINE
8
底板孔
10
368.078217
20
137.012293
11
367.731381
21
137.531371
0
LINE
8
底板孔
10
367.731381
20
137.531371
11
367.212303
21
137.878207
0
LINE
8
底板孔
10
367.212303
20
137.878207
11
366.600010
21
138.000000
0
LINE
8
底板孔
10
366.600010
20
138.000000
11
366.600010
21
138.000000
0
LINE
8
底板通风孔
10
356.574580
20
213.969000
11
361.543415
21
213.969000
0
LINE
8
底板通风孔
10
361.543415
20
213.969000
11
361.543415
21
162.768397
0
LINE
8
底板通风孔
10
361.543415
20
162.768397
11
356.574580
21
162.768397
0
LINE
8
底板通风孔
10
356.574580
20
162.768397
11
356.574580
21
213.969000
0
LINE
8
底板通风孔
10
446.574580
20
213.969000
11
451.543415
21
213.969000
0
LINE
8
底板通风孔
10
451.543415
20
213.969000
11
451.543415
21
162.768397
0
LINE
8
底板通风孔
10
451.543415
20
162.768397
11
446.574580
21
162.768397
0
LINE
8
底板通风孔
10
446.574580
20
162.768397
11
446.574580
21
213.969000
0
LINE
8
底板通风孔
10
456.574580
20
213.969000
11
461.543415
21
213.969000
0
LINE
8
底板通风孔
10
461.543415
20
213.969000
11
461.543415
21
162.768397
0
LINE
8
底板通风孔
10
461.543415
20
162.768397
11
456.574580
21
162.768397
0
LINE
8
底板通风孔
10
456.574580
20
162.768397
11
456.574580
21
213.969000
0
LINE
8
底板通风孔
10
436.574580
20
213.969000
11
441.543415
21
213.969000
0
LINE
8
底板通风孔
10
441.543415
20
213.969000
11
441.543415
21
162.768397
0
LINE
8
底板通风孔
10
441.543415
20
162.768397
11
436.574580
21
162.768397
0
LINE
8
底板通风孔
10
436.574580
20
162.768397
11
436.574580
21
213.969000
0
LINE
8
底板通风孔
10
426.574580
20
213.969000
11
431.543415
21
213.969000
0
LINE
8
底板通风孔
10
431.543415
20
213.969000
11
431.543415
21
162.768397
0
LINE
8
底板通风孔
10
431.543415
20
162.768397
11
426.574580
21
162.768397
0
LINE
8
底板通风孔
10
426.574580
20
162.768397
11
426.574580
21
213.969000
0
LINE
8
底板通风孔
10
386.574580
20
213.969000
11
391.543415
21
213.969000
0
LINE
8
底板通风孔
10
391.543415
20
213.969000
11
391.543415
21
162.768397
0
LINE
8
底板通风孔
10
391.543415
20
162.768397
11
386.574580
21
162.768397
0
LINE
8
底板通风孔
10
386.574580
20
162.768397
11
386.574580
21
213.969000
0
LINE
8
底板通风孔
10
376.574580
20
213.969000
11
381.543415
21
213.969000
0
LINE
8
底板通风孔
10
381.543415
20
213.969000
11
381.543415
21
162.768397
0
LINE
8
底板通风孔
10
381.543415
20
162.768397
11
376.574580
21
162.768397
0
LINE
8
底板通风孔
10
376.574580
20
162.768397
11
376.574580
21
213.969000
0
LINE
8
底板通风孔
10
366.574580
20
213.969000
11
371.543415
21
213.969000
0
LINE
8
底板通风孔
10
371.543415
20
213.969000
11
371.543415
21
162.768397
0
LINE
8
底板通风孔
10
371.543415
20
162.768397
11
366.574580
21
162.768397
0
LINE
8
底板通风孔
10
366.574580
20
162.768397
11
366.574580
21
213.969000
0
LINE
8
右侧
10
190.264583
20
90.081000
11
190.264583
21
79.018000
0
LINE
8
右侧
10
190.264583
20
79.018000
11
187.264583
21
79.018000
0
LINE
8
右侧
10
187.264583
20
79.018000
11
187.264583
21
65.143000
0
LINE
8
右侧
10
187.264583
20
65.143000
11
190.264583
21
65.143000
0
LINE
8
右侧
10
190.264583
20
65.143000
11
190.264583
21
50.080750
0
LINE
8
右侧
10
190.264583
20
50.080750
11
200.202583
21
50.080750
0
LINE
8
右侧
10
200.202583
20
50.080750
11
200.202583
21
57.081000
0
LINE
8
右侧
10
200.202583
20
57.081000
11
214.077583
21
57.081000
0
LINE
8
右侧
10
214.077583
20
57.081000
11
214.077583
21
54.081000
0
LINE
8
右侧
10
214.077583
20
54.081000
11
227.952583
21
54.081000
0
LINE
8
右侧
10
227.952583
20
54.081000
11
227.952583
21
57.081000
0
LINE
8
右侧
10
227.952583
20
57.081000
11
241.827583
21
57.081000
0
LINE
8
右侧
10
241.827583
20
57.081000
11
241.827583
21
54.081000
0
LINE
8
右侧
10
241.827583
20
54.081000
11
255.702583
21
54.081000
0
LINE
8
右侧
10
255.702583
20
54.081000
11
255.702583
21
57.081000
0
LINE
8
右侧
10
255.702583
20
57.081000
11
269.577583
21
57.081000
0
LINE
8
右侧
10
269.577583
20
57.081000
11
269.577583
21
54.081000
0
LINE
8
右侧
10
269.577583
20
54.081000
11
283.452583
21
54.081000
0
LINE
8
右侧
10
283.452583
20
54.081000
11
283.452583
21
57.081000
0
LINE
8
右侧
10
283.452583
20
57.081000
11
297.327583
21
57.081000
0
LINE
8
右侧
10
297.327583
20
57.081000
11
297.327583
21
50.080750
0
LINE
8
右侧
10
297.327583
20
50.080750
11
307.264583
21
50.080750
0
LINE
8
右侧
10
307.264583
20
50.080750
11
307.264583
21
65.143000
0
LINE
8
右侧
10
307.264583
20
65.143000
11
310.264583
21
65.143000
0
LINE
8
右侧
10
310.264583
20
65.143000
11
310.264583
21
79.018000
0
LINE
8
右侧
10
310.264583
20
79.018000
11
307.264583
21
79.018000
0
LINE
8
右侧
10
307.264583
20
79.018000
11
307.264583
21
90.081000
0
LINE
8
右侧
10
307.264583
20
90.081000
11
297.327583
21
90.081000
0
LINE
8
右侧
10
297.327583
20
90.081000
11
297.327583
21
87.081000
0
LINE
8
右侧
10
297.327583
20
87.081000
11
283.452583
21
87.081000
0
LINE
8
右侧
10
283.452583
20
87.081000
11
283.452583
21
90.081000
0
LINE
8
右侧
10
283.452583
20
90.081000
11
269.577583
21
90.081000
0
LINE
8
右侧
10
269.577583
20
90.081000
11
269.577583
21
87.081000
0
LINE
8
右侧
10
269.577583
20
87.081000
11
255.702583
21
87.081000
0
LINE
8
右侧
10
255.702583
20
87.081000
11
255.702583
21
90.081000
0
LINE
8
右侧
10
255.702583
20
90.081000
11
241.827583
21
90.081000
0
LINE
8
右侧
10
241.827583
20
90.081000
11
241.827583
21
87.081000
0
LINE
8
右侧
10
241.827583
20
87.081000
11
227.952583
21
87.081000
0
LINE
8
右侧
10
227.952583
20
87.081000
11
227.952583
21
90.081000
0
LINE
8
右侧
10
227.952583
20
90.081000
11
214.077583
21
90.081000
0
LINE
8
右侧
10
214.077583
20
90.081000
11
214.077583
21
87.081000
0
LINE
8
右侧
10
214.077583
20
87.081000
11
200.202583
21
87.081000
0
LINE
8
右侧
10
200.202583
20
87.081000
11
200.202583
21
90.081000
0
LINE
8
右侧
10
200.202583
20
90.081000
11
190.264583
21
90.081000
0
LINE
8
右侧通风孔
10
206.363213
20
81.438410
11
209.603758
21
81.438410
0
LINE
8
右侧通风孔
10
209.603758
20
81.438410
11
209.603758
21
65.235687
0
LINE
8
右侧通风孔
10
209.603758
20
65.235687
11
206.363213
21
65.235687
0
LINE
8
右侧通风孔
10
206.363213
20
65.235687
11
206.363213
21
81.438410
0
LINE
8
右侧通风孔
10
216.702863
20
81.438410
11
219.943408
21
81.438410
0
LINE
8
右侧通风孔
10
219.943408
20
81.438410
11
219.943408
21
65.235687
0
LINE
8
右侧通风孔
10
219.943408
20
65.235687
11
216.702863
21
65.235687
0
LINE
8
右侧通风孔
10
216.702863
20
65.235687
11
216.702863
21
81.438410
0
LINE
8
右侧通风孔
10
237.382163
20
81.438410
11
240.622708
21
81.438410
0
LINE
8
右侧通风孔
10
240.622708
20
81.438410
11
240.622708
21
65.235687
0
LINE
8
右侧通风孔
10
240.622708
20
65.235687
11
237.382163
21
65.235687
0
LINE
8
右侧通风孔
10
237.382163
20
65.235687
11
237.382163
21
81.438410
0
LINE
8
右侧通风孔
10
227.042503
20
81.438410
11
230.283048
21
81.438410
0
LINE
8
右侧通风孔
10
230.283048
20
81.438410
11
230.283048
21
65.235687
0
LINE
8
右侧通风孔
10
230.283048
20
65.235687
11
227.042503
21
65.235687
0
LINE
8
右侧通风孔
10
227.042503
20
65.235687
11
227.042503
21
81.438410
0
LINE
8
右侧通风孔
10
247.721813
20
81.438410
11
250.962358
21
81.438410
0
LINE
8
右侧通风孔
10
250.962358
20
81.438410
11
250.962358
21
65.235687
0
LINE
8
右侧通风孔
10
250.962358
20
65.235687
11
247.721813
21
65.235687
0
LINE
8
右侧通风孔
10
247.721813
20
65.235687
11
247.721813
21
81.438410
0
LINE
8
右侧通风孔
10
289.080413
20
81.438410
11
292.320958
21
81.438410
0
LINE
8
右侧通风孔
10
292.320958
20
81.438410
11
292.320958
21
65.235687
0
LINE
8
右侧通风孔
10
292.320958
20
65.235687
11
289.080413
21
65.235687
0
LINE
8
右侧通风孔
10
289.080413
20
65.235687
11
289.080413
21
81.438410
0
LINE
8
右侧通风孔
10
258.061463
20
81.438410
11
261.302008
21
81.438410
0
LINE
8
右侧通风孔
10
261.302008
20
81.438410
11
261.302008
21
65.235687
0
LINE
8
右侧通风孔
10
261.302008
20
65.235687
11
258.061463
21
65.235687
0
LINE
8
右侧通风孔
10
258.061463
20
65.235687
11
258.061463
21
81.438410
0
LINE
8
右侧通风孔
10
268.401123
20
81.438410
11
271.641668
21
81.438410
0
LINE
8
右侧通风孔
10
271.641668
20
81.438410
11
271.641668
21
65.235687
0
LINE
8
右侧通风孔
10
271.641668
20
65.235687
11
268.401123
21
65.235687
0
LINE
8
右侧通风孔
10
268.401123
20
65.235687
11
268.401123
21
81.438410
0
LINE
8
右侧通风孔
10
278.740753
20
81.438410
11
281.981298
21
81.438410
0
LINE
8
右侧通风孔
10
281.981298
20
81.438410
11
281.981298
21
65.235687
0
LINE
8
右侧通风孔
10
281.981298
20
65.235687
11
278.740753
21
65.235687
0
LINE
8
右侧通风孔
10
278.740753
20
65.235687
11
278.740753
21
81.438410
0
LINE
8
左侧
10
190.264583
20
44.202000
11
190.264583
21
33.139000
0
LINE
8
左侧
10
190.264583
20
33.139000
11
187.264583
21
33.139000
0
LINE
8
左侧
10
187.264583
20
33.139000
11
187.264583
21
19.264000
0
LINE
8
左侧
10
187.264583
20
19.264000
11
190.264583
21
19.264000
0
LINE
8
左侧
10
190.264583
20
19.264000
11
190.264583
21
4.201920
0
LINE
8
左侧
10
190.264583
20
4.201920
11
200.202583
21
4.201920
0
LINE
8
左侧
10
200.202583
20
4.201920
11
200.202583
21
11.202000
0
LINE
8
左侧
10
200.202583
20
11.202000
11
214.077583
21
11.202000
0
LINE
8
左侧
10
214.077583
20
11.202000
11
214.077583
21
8.202000
0
LINE
8
左侧
10
214.077583
20
8.202000
11
227.952583
21
8.202000
0
LINE
8
左侧
10
227.952583
20
8.202000
11
227.952583
21
11.202000
0
LINE
8
左侧
10
227.952583
20
11.202000
11
241.827583
21
11.202000
0
LINE
8
左侧
10
241.827583
20
11.202000
11
241.827583
21
8.202000
0
LINE
8
左侧
10
241.827583
20
8.202000
11
255.702583
21
8.202000
0
LINE
8
左侧
10
255.702583
20
8.202000
11
255.702583
21
11.202000
0
LINE
8
左侧
10
255.702583
20
11.202000
11
269.577583
21
11.202000
0
LINE
8
左侧
10
269.577583
20
11.202000
11
269.577583
21
8.202000
0
LINE
8
左侧
10
269.577583
20
8.202000
11
283.452583
21
8.202000
0
LINE
8
左侧
10
283.452583
20
8.202000
11
283.452583
21
11.202000
0
LINE
8
左侧
10
283.452583
20
11.202000
11
297.327583
21
11.202000
0
LINE
8
左侧
10
297.327583
20
11.202000
11
297.327583
21
4.201920
0
LINE
8
左侧
10
297.327583
20
4.201920
11
307.264583
21
4.201920
0
LINE
8
左侧
10
307.264583
20
4.201920
11
307.264583
21
19.264000
0
LINE
8
左侧
10
307.264583
20
19.264000
11
310.264583
21
19.264000
0
LINE
8
左侧
10
310.264583
20
19.264000
11
310.264583
21
33.139000
0
LINE
8
左侧
10
310.264583
20
33.139000
11
307.264583
21
33.139000
0
LINE
8
左侧
10
307.264583
20
33.139000
11
307.264583
21
44.202000
0
LINE
8
左侧
10
307.264583
20
44.202000
11
297.327583
21
44.202000
0
LINE
8
左侧
10
297.327583
20
44.202000
11
297.327583
21
41.202000
0
LINE
8
左侧
10
297.327583
20
41.202000
11
283.452583
21
41.202000
0
LINE
8
左侧
10
283.452583
20
41.202000
11
283.452583
21
44.202000
0
LINE
8
左侧
10
283.452583
20
44.202000
11
269.577583
21
44.202000
0
LINE
8
左侧
10
269.577583
20
44.202000
11
269.577583
21
41.202000
0
LINE
8
左侧
10
269.577583
20
41.202000
11
255.702583
21
41.202000
0
LINE
8
左侧
10
255.702583
20
41.202000
11
255.702583
21
44.202000
0
LINE
8
左侧
10
255.702583
20
44.202000
11
241.827583
21
44.202000
0
LINE
8
左侧
10
241.827583
20
44.202000
11
241.827583
21
41.202000
0
LINE
8
左侧
10
241.827583
20
41.202000
11
227.952583
21
41.202000
0
LINE
8
左侧
10
227.952583
20
41.202000
11
227.952583
21
44.202000
0
LINE
8
左侧
10
227.952583
20
44.202000
11
214.077583
21
44.202000
0
LINE
8
左侧
10
214.077583
20
44.202000
11
214.077583
21
41.202000
0
LINE
8
左侧
10
214.077583
20
41.202000
11
200.202583
21
41.202000
0
LINE
8
左侧
10
200.202583
20
41.202000
11
200.202583
21
44.202000
0
LINE
8
左侧
10
200.202583
20
44.202000
11
190.264583
21
44.202000
0
LINE
8
左侧通风孔
10
206.264580
20
36.270410
11
209.505125
21
36.270410
0
LINE
8
左侧通风孔
10
209.505125
20
36.270410
11
209.505125
21
20.067687
0
LINE
8
左侧通风孔
10
209.505125
20
20.067687
11
206.264580
21
20.067687
0
LINE
8
左侧通风孔
10
206.264580
20
20.067687
11
206.264580
21
36.270410
0
LINE
8
左侧通风孔
10
216.604230
20
36.270410
11
219.844775
21
36.270410
0
LINE
8
左侧通风孔
10
219.844775
20
36.270410
11
219.844775
21
20.067687
0
LINE
8
左侧通风孔
10
219.844775
20
20.067687
11
216.604230
21
20.067687
0
LINE
8
左侧通风孔
10
216.604230
20
20.067687
11
216.604230
21
36.270410
0
LINE
8
左侧通风孔
10
237.283530
20
36.270410
11
240.524075
21
36.270410
0
LINE
8
左侧通风孔
10
240.524075
20
36.270410
11
240.524075
21
20.067687
0
LINE
8
左侧通风孔
10
240.524075
20
20.067687
11
237.283530
21
20.067687
0
LINE
8
左侧通风孔
10
237.283530
20
20.067687
11
237.283530
21
36.270410
0
LINE
8
左侧通风孔
10
226.943870
20
36.270410
11
230.184415
21
36.270410
0
LINE
8
左侧通风孔
10
230.184415
20
36.270410
11
230.184415
21
20.067687
0
LINE
8
左侧通风孔
10
230.184415
20
20.067687
11
226.943870
21
20.067687
0
LINE
8
左侧通风孔
10
226.943870
20
20.067687
11
226.943870
21
36.270410
0
LINE
8
左侧通风孔
10
247.623180
20
36.270410
11
250.863725
21
36.270410
0
LINE
8
左侧通风孔
10
250.863725
20
36.270410
11
250.863725
21
20.067687
0
LINE
8
左侧通风孔
10
250.863725
20
20.067687
11
247.623180
21
20.067687
0
LINE
8
左侧通风孔
10
247.623180
20
20.067687
11
247.623180
21
36.270410
0
LINE
8
左侧通风孔
10
288.981780
20
36.270410
11
292.222325
21
36.270410
0
LINE
8
左侧通风孔
10
292.222325
20
36.270410
11
292.222325
21
20.067687
0
LINE
8
左侧通风孔
10
292.222325
20
20.067687
11
288.981780
21
20.067687
0
LINE
8
左侧通风孔
10
288.981780
20
20.067687
11
288.981780
21
36.270410
0
LINE
8
左侧通风孔
10
257.962830
20
36.270410
11
261.203375
21
36.270410
0
LINE
8
左侧通风孔
10
261.203375
20
36.270410
11
261.203375
21
20.067687
0
LINE
8
左侧通风孔
10
261.203375
20
20.067687
11
257.962830
21
20.067687
0
LINE
8
左侧通风孔
10
257.962830
20
20.067687
11
257.962830
21
36.270410
0
LINE
8
左侧通风孔
10
268.302490
20
36.270410
11
271.543035
21
36.270410
0
LINE
8
左侧通风孔
10
271.543035
20
36.270410
11
271.543035
21
20.067687
0
LINE
8
左侧通风孔
10
271.543035
20
20.067687
11
268.302490
21
20.067687
0
LINE
8
左侧通风孔
10
268.302490
20
20.067687
11
268.302490
21
36.270410
0
LINE
8
左侧通风孔
10
278.642120
20
36.270410
11
281.882665
21
36.270410
0
LINE
8
左侧通风孔
10
281.882665
20
36.270410
11
281.882665
21
20.067687
0
LINE
8
左侧通风孔
10
281.882665
20
20.067687
11
278.642120
21
20.067687
0
LINE
8
左侧通风孔
10
278.642120
20
20.067687
11
278.642120
21
36.270410
 0 
ENDSEC
 0 
EOF